<?xml version="1.0" encoding="UTF-8" standalone="no"?>
<!-- Created with Inkscape (http://www.inkscape.org/) -->

<svg
   xmlns:dc="http://purl.org/dc/elements/1.1/"
   xmlns:cc="http://creativecommons.org/ns#"
   xmlns:rdf="http://www.w3.org/1999/02/22-rdf-syntax-ns#"
   xmlns:svg="http://www.w3.org/2000/svg"
   xmlns="http://www.w3.org/2000/svg"
   xmlns:sodipodi="http://sodipodi.sourceforge.net/DTD/sodipodi-0.dtd"
   xmlns:inkscape="http://www.inkscape.org/namespaces/inkscape"
   width="118.53333mm"
   height="118.53333mm"
   viewBox="0 0 420 420"
   id="svg2"
   version="1.1"
   inkscape:version="0.91 r13725"
   sodipodi:docname="icon.svg">
  <defs
     id="defs4" />
  <sodipodi:namedview
     id="base"
     pagecolor="#ffffff"
     bordercolor="#666666"
     borderopacity="1.0"
     inkscape:pageopacity="0.0"
     inkscape:pageshadow="2"
     inkscape:zoom="0.54"
     inkscape:cx="149.28571"
     inkscape:cy="154.28571"
     inkscape:document-units="px"
     inkscape:current-layer="layer1"
     showgrid="false"
     inkscape:snap-midpoints="true"
     fit-margin-top="0"
     fit-margin-left="0"
     fit-margin-right="0"
     fit-margin-bottom="0"
     inkscape:window-width="1366"
     inkscape:window-height="744"
     inkscape:window-x="0"
     inkscape:window-y="24"
     inkscape:window-maximized="1" />
  <metadata
     id="metadata7">
    <rdf:RDF>
      <cc:Work
         rdf:about="">
        <dc:format>image/svg+xml</dc:format>
        <dc:type
           rdf:resource="http://purl.org/dc/dcmitype/StillImage" />
        <dc:title></dc:title>
      </cc:Work>
    </rdf:RDF>
  </metadata>
  <g
     inkscape:label="Layer 1"
     inkscape:groupmode="layer"
     id="layer1"
     transform="translate(-225.71429,-266.64792)">
    <circle
       style="fill:#ff537a;fill-opacity:1"
       id="path3340"
       cy="476.64792"
       cx="435.71429"
       r="210" />
    <path
       sodipodi:type="spiral"
       style="fill:#ffffff;fill-rule:evenodd;stroke:none;stroke-width:0.99974978;stroke-linecap:butt;stroke-linejoin:miter;stroke-miterlimit:4;stroke-dasharray:none;stroke-opacity:1"
       id="path3348"
       sodipodi:cx="425.71429"
       sodipodi:cy="472.07648"
       sodipodi:expansion="1"
       sodipodi:revolution="6"
       sodipodi:radius="193.99138"
       sodipodi:argument="-18.084988"
       sodipodi:t0="0.079999998"
       d="m 413.25618,462.82206 c 3.57866,-10.84475 16.89791,-14.04399 26.53254,-9.6923 14.29015,6.45445 18.22543,24.58798 11.3609,37.84116 -9.20322,17.76842 -32.31378,22.45182 -49.14977,13.02949 -21.26567,-11.90143 -26.70098,-40.05605 -14.69809,-60.45839 14.57476,-24.77397 47.80744,-30.96313 71.767,-16.36668 28.28912,17.23408 35.23342,55.56448 18.03527,83.07562 -19.88476,31.80879 -63.32527,39.50909 -94.38422,19.70386 -35.33159,-22.52974 -43.78853,-71.08869 -21.37246,-105.69284 25.17076,-38.85662 78.85402,-48.07069 117.00145,-23.04105 42.38331,27.80892 52.35489,86.62079 24.70965,128.31007 -30.44496,45.91125 -94.38868,56.64065 -139.61868,26.37823 -49.44019,-33.07935 -60.92764,-102.15743 -28.04683,-150.92729 35.71248,-52.9699 109.92688,-65.2156 162.2359,-29.71543 56.50024,38.34459 69.50435,117.69691 31.38402,173.54453 -40.97587,60.03108 -125.4674,73.79375 -184.85313,33.05261 -63.56237,-43.60649 -78.0837,-133.23829 -34.72121,-196.16175 46.23653,-67.094 141.0095,-82.37409 207.47036,-36.3898 70.62594,48.8661 86.66487,148.781 38.05839,218.77898 -51.49527,74.15812 -156.55273,90.95598 -230.08758,39.72698 -77.69054,-54.12411 -95.24738,-164.32468 -41.39558,-241.3962 56.75264,-81.22314 172.09681,-99.53902 252.70481,-43.06417 84.75591,59.38092 103.83088,179.8691 44.73277,264.01343 -4.66425,6.64098 -9.74713,12.9876 -15.20745,18.99114"
       transform="matrix(0.96897639,0,0,0.9977258,17.684619,9.813748)" />
  </g>
</svg>
