<?xml version="1.0" encoding="UTF-8" standalone="no"?>
<svg
   xmlns:dc="http://purl.org/dc/elements/1.1/"
   xmlns:cc="http://creativecommons.org/ns#"
   xmlns:rdf="http://www.w3.org/1999/02/22-rdf-syntax-ns#"
   xmlns:svg="http://www.w3.org/2000/svg"
   xmlns="http://www.w3.org/2000/svg"
   xmlns:sodipodi="http://sodipodi.sourceforge.net/DTD/sodipodi-0.dtd"
   xmlns:inkscape="http://www.inkscape.org/namespaces/inkscape"
   role="img"
   viewBox="0 0 400 441.16516"
   version="1.1"
   id="svg1496"
   sodipodi:docname="jenkins.svg"
   inkscape:version="1.0.1 (unknown)"
   width="400"
   height="441.16516">
  <metadata
     id="metadata1502">
    <rdf:RDF>
      <cc:Work
         rdf:about="">
        <dc:format>image/svg+xml</dc:format>
        <dc:type
           rdf:resource="http://purl.org/dc/dcmitype/StillImage" />
        <dc:title />
      </cc:Work>
    </rdf:RDF>
  </metadata>
  <defs
     id="defs1500" />
  <sodipodi:namedview
     pagecolor="#ffffff"
     bordercolor="#666666"
     borderopacity="1"
     objecttolerance="10"
     gridtolerance="10"
     guidetolerance="10"
     inkscape:pageopacity="0"
     inkscape:pageshadow="2"
     inkscape:window-width="1680"
     inkscape:window-height="1017"
     id="namedview1498"
     showgrid="false"
     inkscape:zoom="2.0000001"
     inkscape:cx="104.79235"
     inkscape:cy="240.06605"
     inkscape:window-x="0"
     inkscape:window-y="33"
     inkscape:window-maximized="1"
     inkscape:current-layer="svg1496"
     fit-margin-top="0"
     fit-margin-left="0"
     fit-margin-right="0"
     fit-margin-bottom="0"
     inkscape:document-rotation="0" />
  <path
     style="fill:#828282;fill-opacity:0.01960784;fill-rule:evenodd;stroke:#000000;stroke-width:5.34506;stroke-linejoin:round;stroke-opacity:0"
     d="m 166.32862,355.02204 c -23.5525,-2.71067 -36.47281,-8.23233 -44.74896,-19.12404 -9.54688,-12.56403 -22.303274,-43.6278 -24.867911,-60.55717 -0.939202,-6.19974 -0.438517,-7.83578 3.530321,-11.53569 4.46957,-4.16673 6.33688,-7.38148 6.3252,-10.88948 -0.006,-1.78896 -0.27768,-3.67354 -0.60384,-4.18796 -0.93279,-1.4712 -5.38433,-0.28573 -9.158868,2.43906 -8.791205,6.34627 -8.576623,6.24548 -13.850759,6.50584 -6.252282,0.30863 -11.126663,-1.37835 -16.730339,-5.79025 -12.927013,-10.17772 -22.187831,-33.80234 -19.086429,-48.69004 2.48672,-11.93703 11.775752,-22.04159 23.025064,-25.04655 15.626992,-4.17433 25.673758,3.7771 30.468131,24.11374 l 1.29918,5.51083 6.15606,-0.46472 c 7.76948,-0.58652 12.78305,-2.06452 15.62911,-4.60747 l 2.22881,-1.99144 -0.89076,-5.92744 c -0.48991,-3.26009 -2.06286,-10.38222 -3.49545,-15.82694 -2.43905,-9.26989 -2.6,-10.5291 -2.5306,-19.79899 0.067,-8.94923 0.39241,-11.39276 3.39005,-25.45584 4.88924,-22.93732 5.34733,-34.656472 1.78846,-45.753587 l -1.52057,-4.741393 2.58276,-4.618405 c 8.79813,-15.732532 27.812,-32.317505 54.14282,-47.226431 21.91157,-12.406679 30.56863,-14.975384 50.20458,-14.896601 21.8294,0.08759 44.88426,5.585856 66.39273,15.833768 4.81994,2.296505 9.14061,4.175464 9.60149,4.175464 1.63417,0 7.87854,4.661451 13.7269,10.24718 5.90134,5.636322 13.63691,14.683631 21.77012,25.461713 l 4.26869,5.656854 -7.49861,0.01367 c -6.7477,0.0123 -7.86113,0.203544 -11.11881,1.90978 -6.20925,3.252146 -9.11883,8.150475 -8.63131,14.530961 l 0.2307,3.019389 2.47487,-1.67677 c 8.06525,-5.464344 19.90284,-4.46598 30.50745,2.572957 10.47259,6.951311 15.35839,16.018791 17.86528,33.155871 2.78204,19.01809 3.21548,62.12491 0.80203,79.76377 -3.82733,27.97226 -10.58071,50.43401 -21.76441,72.38848 -4.68664,9.20024 -17.70658,29.0472 -23.86233,36.37458 -9.47455,11.27784 -35.8554,25.04718 -55.74069,29.09355 -17.7448,3.6108 -29.52159,2.49313 -46.04556,-4.36995 -22.64436,-9.40512 -38.63648,-23.59696 -60.74954,-53.91075 -4.6927,-6.433 -8.32532,-10.81196 -8.44664,-10.18202 -0.44828,2.32774 2.02083,11.52416 4.45013,16.57487 1.39562,2.90162 4.9785,8.53098 7.96195,12.50968 7.23028,9.64225 28.60316,31.05117 35.52129,35.5812 l 5.3033,3.47263 h -8.13173 c -9.52848,0 -13.58042,1.19662 -16.91601,4.99565 -2.44765,2.78771 -2.71627,2.81181 -15.25735,1.36844 z M 295.61896,310.1675 c 8.10324,-1.85106 11.55325,-3.79985 14.49527,-8.18786 l 2.36426,-3.52627 -22.87036,-0.45426 c -24.30726,-0.48279 -30.03614,-1.17936 -39.65391,-4.82142 -8.58298,-3.25021 -16.64832,-10.50101 -19.59574,-17.6167 -0.77468,-1.87025 -1.28972,-2.20991 -3.35095,-2.20991 -5.63085,0 -6.7832,3.13791 -2.61072,7.10913 1.40817,1.34024 5.26474,6.09609 8.57016,10.56854 3.30542,4.47245 7.0058,9.19625 8.22307,10.49733 4.73763,5.06382 10.65118,8.06092 19.18378,9.7227 7.21794,1.40573 27.01702,0.79833 35.24514,-1.08128 z m 6.53733,-33.45767 c -0.79148,-11.64655 0.89529,-10.42972 -14.45874,-10.43041 -20.93941,-7.1e-4 -38.4408,-2.18577 -48.77009,-6.08834 -8.03963,-3.03749 -7.66958,-3.11264 -5.38072,1.09275 5.52922,10.159 20.42841,17.97099 39.90856,20.92498 9.30934,1.41168 10.50693,1.50756 20.4304,1.6357 l 8.76315,0.11317 z m 15.2816,5.0468 c 9.51602,-1.99821 19.60029,-8.49733 26.50762,-17.08362 4.38773,-5.45427 11.25648,-16.58407 10.62473,-17.21582 -0.2058,-0.2058 -6.21458,2.62102 -13.35285,6.28184 -13.42654,6.88571 -20.84608,9.75224 -29.048,11.22264 l -4.77297,0.85568 v 7.89166 c 0,4.3404 0.21214,8.10378 0.47141,8.36305 0.71746,0.71746 5.38359,0.56366 9.57006,-0.31543 z m -23.4172,-24.9918 c 8.97088,-1.35232 18.491,-4.47105 27.5737,-9.03299 10.49518,-5.27137 21.10715,-11.98035 21.13455,-13.36145 0.0126,-0.63276 0.97742,-4.25162 2.14414,-8.04191 3.25996,-10.59048 3.22026,-10.76873 -3.99762,-17.95202 -3.36542,-3.34929 -9.53103,-10.11385 -13.70134,-15.03237 -17.31454,-20.42094 -27.59227,-36.07844 -30.65337,-46.69854 -1.58486,-5.49846 -3.43995,-7.21836 -6.0222,-5.58333 -1.5457,0.97871 -0.59531,11.22257 1.71124,18.44467 4.68646,14.67389 10.88574,23.91106 35.88405,53.46857 5.66041,6.69277 6.37187,9.97049 3.59874,16.57951 -0.97435,2.3221 -1.98082,2.95011 -12.85341,8.02017 -15.27425,7.12261 -22.91937,9.68518 -30.27394,10.14752 -3.16234,0.19879 -6.86551,0.15212 -8.22925,-0.10371 -3.10473,-0.58246 -5.96683,-3.38416 -6.85991,-6.71515 -0.37669,-1.40498 -1.18074,-4.38415 -1.7868,-6.62037 -0.60605,-2.23623 -1.4291,-4.06587 -1.82902,-4.06587 -0.39991,0 -1.3973,1.51144 -2.21643,3.35876 -2.21026,4.98467 -2.06537,12.1309 0.34832,17.17992 2.08376,4.35887 3.22194,5.91785 4.75605,6.51439 2.0591,0.8007 14.58056,0.50297 21.2725,-0.5058 z M 75.608469,208.92 c 1.190482,-2.71604 3.653654,-4.86539 5.575762,-4.86539 2.255101,0 4.979658,3.04304 7.822332,8.73669 3.325216,6.66015 6.065169,10.55773 7.011023,9.97316 1.23213,-0.7615 0.7561,-12.11069 -0.679263,-16.19456 -2.845317,-8.09543 -8.904196,-14.18097 -16.337389,-16.40927 -4.760696,-1.42715 -10.189294,-0.56653 -13.800453,2.18784 -2.600381,1.9834 -5.140608,6.6933 -5.799364,10.75274 l -0.437803,2.69786 3.400849,-2.99355 c 2.305116,-2.02905 4.05225,-2.99355 5.422616,-2.99355 2.215733,0 2.374731,0.39378 1.300175,3.22008 -3.353651,8.82077 -1.521713,25.49563 3.40025,30.9501 1.149123,1.27345 1.230412,0.73756 1.60497,-10.58076 0.285405,-8.62434 0.704832,-12.63008 1.516295,-14.48139 z M 245.87813,185.68389 c 2.88115,-0.83444 8.24688,-4.9239 10.05211,-7.66116 1.44785,-2.19538 1.71076,-8.55863 0.45287,-10.96093 -0.44481,-0.84948 -3.13731,-3.99431 -5.98336,-6.98852 -5.42142,-5.70366 -7.49294,-9.25819 -13.00183,-22.30993 -1.68256,-3.98631 -3.28471,-7.24784 -3.56034,-7.24784 -0.27564,0 -0.68549,1.35234 -0.91077,3.0052 -0.87422,6.41387 3.25723,19.19572 9.96539,30.83087 l 2.94178,5.10244 -2.25299,1.37012 c -3.69078,2.2445 -7.41266,2.38637 -18.13092,0.69109 -5.46219,-0.86395 -10.40229,-1.39005 -10.97799,-1.16913 -0.57571,0.22091 -1.39891,1.70951 -1.82933,3.30798 -2.25198,8.36322 7.97172,13.83184 24.39655,13.04964 3.50018,-0.16669 7.47765,-0.62561 8.83883,-1.01983 z m 101.90364,-6.38876 c 7.75354,-1.46131 19.71873,-8.95467 19.71873,-12.34911 0,-0.57624 -1.17725,-2.88353 -2.6161,-5.12731 -1.43885,-2.24377 -5.56307,-10.28034 -9.16493,-17.85902 -3.60186,-7.57869 -6.87939,-13.88962 -7.2834,-14.02429 -1.15284,-0.38428 -0.88756,9.42562 0.39297,14.53161 0.62015,2.47275 2.33817,7.58425 3.81784,11.35888 l 2.69031,6.86298 -2.14913,0.92633 c -1.18202,0.50948 -5.89854,1.24642 -10.48115,1.63764 -10.76542,0.91906 -12.26543,1.33216 -12.57456,3.46296 -0.34653,2.38851 1.04583,6.60017 2.66701,8.06732 3.19624,2.89255 8.36508,3.75918 14.98241,2.51201 z M 181.68999,115.22224 c 5.15544,-7.01816 11.356,-11.64107 18.86431,-14.06455 3.06512,-0.98935 5.46477,-1.165288 12.14217,-0.89028 8.00371,0.32963 8.33736,0.28583 8.72141,-1.144813 1.3726,-5.11328 -0.52242,-9.084972 -5.65087,-11.843374 -6.59386,-3.546586 -12.87909,-3.232063 -21.86122,1.093972 -12.55933,6.048902 -23.05253,18.849565 -25.09693,30.615735 -0.89389,5.1446 0.25284,9.02016 2.96842,10.03226 1.48818,0.55464 1.85643,0.15713 4.45084,-4.80466 1.55563,-2.97513 4.01348,-7.02256 5.46187,-8.99429 z"
     id="path2393" />
  <path
     style="fill:#828282;fill-opacity:0.0196078;fill-rule:evenodd;stroke:#000000;stroke-width:5.34506;stroke-linejoin:round;stroke-opacity:0"
     d="m 171.98548,355.62183 c -16.96685,-1.99029 -28.37681,-4.47144 -35.45833,-7.71056 -6.74989,-3.08743 -14.68526,-10.34467 -18.37401,-16.80384 -1.41707,-2.48135 -11.00127,-21.9131 -11.57185,-23.46167 -0.2866,-0.77782 -0.84901,-2.20971 -1.24982,-3.18198 -2.52471,-6.12443 -3.7009,-9.29091 -4.72782,-12.72793 -1.469854,-4.91953 -4.381286,-18.45072 -4.222002,-19.62221 0.0661,-0.48614 0.159953,-1.703 0.208567,-2.70415 0.0558,-1.14911 1.478518,-3.30001 3.858685,-5.83363 5.25898,-5.59803 6.1292,-7.08552 6.1292,-10.47683 0,-3.49513 -0.54814,-5.20531 -1.66664,-5.19985 -2.46006,0.012 -6.470254,1.7942 -9.595039,4.2642 -6.364633,5.03095 -7.843434,5.5983 -13.988159,5.36666 -12.041046,-0.45392 -21.174984,-8.17528 -29.066541,-24.57138 -4.577675,-9.51092 -6.652602,-21.21028 -5.169309,-29.14686 1.840457,-9.84764 9.18318,-19.5411 18.036708,-23.81109 6.131276,-2.95705 14.057033,-3.65439 19.458537,-1.71204 1.983116,0.71311 3.605665,1.50084 3.605665,1.7505 0,0.24965 0.756293,0.7985 1.680651,1.21967 3.394034,1.54643 8.023006,10.27603 10.587917,19.96735 l 1.59072,6.0104 5.92837,-0.16442 c 7.28872,-0.20215 12.76534,-1.7219 15.72062,-4.36243 l 2.24179,-2.00304 -0.89095,-5.92744 c -0.49001,-3.26009 -2.00183,-10.22312 -3.35959,-15.47338 -2.30476,-8.9122 -2.46463,-10.24213 -2.40815,-20.03232 0.0333,-5.76751 0.39512,-12.13147 0.80409,-14.14213 0.40898,-2.01068 1.85633,-8.90604 3.21634,-15.32303 3.90474,-18.42399 4.20385,-31.589846 0.94046,-41.396343 -1.52283,-4.576094 -1.53605,-4.83875 -0.36766,-7.307798 5.2713,-11.139415 19.06824,-25.461919 36.65925,-38.055702 9.01561,-6.454472 26.75697,-16.537561 36.90818,-20.976325 14.9127,-6.520798 37.67074,-7.360288 61.8678,-2.282157 14.05007,2.948627 30.09689,8.676276 41.82352,14.928226 1.8074,0.963602 3.81836,1.752004 4.46878,1.752004 0.65044,0 2.67183,1.020674 4.49198,2.268165 3.61025,2.474367 17.59832,16.223918 20.99224,20.634292 1.16387,1.512451 2.44152,3.103442 2.83921,3.535533 1.55572,1.690305 10.3601,13.364904 10.65119,14.123456 0.21751,0.566826 -1.72926,0.806641 -6.59347,0.812226 -5.72685,0.0066 -7.5351,0.292683 -10.61957,1.68028 -6.40552,2.881626 -9.74613,8.205011 -9.24116,14.726183 l 0.2307,2.979359 2.98829,-2.012652 c 3.22528,-2.172275 7.66716,-3.159141 13.27517,-2.949399 11.5221,0.430939 24.17569,9.287172 29.53921,20.674472 5.40386,11.47295 7.53196,31.60552 7.20178,68.13142 -0.18925,20.93671 -0.88664,29.63802 -3.49042,43.54983 -2.774,14.82134 -8.23469,33.71932 -12.85422,44.48497 -1.26822,2.95553 -9.72348,19.96673 -11.42248,22.98097 -0.65763,1.16672 -1.43435,2.22738 -1.72603,2.35702 -0.29168,0.12964 -0.53033,0.50484 -0.53033,0.83378 0,0.66001 -7.44985,12.08737 -10.89603,16.71347 -1.20199,1.61354 -2.82184,3.83731 -3.59966,4.94172 -7.1279,10.12077 -26.50008,22.09122 -46.78221,28.90764 -15.90387,5.34498 -33.15734,6.44387 -45.75192,2.91398 -3.83581,-1.07508 -7.49509,-2.22366 -8.13173,-2.55243 -0.63663,-0.32877 -3.56413,-1.59886 -6.50553,-2.82241 -6.03932,-2.51222 -18.04738,-9.81282 -23.52776,-14.30429 -11.49823,-9.42343 -25.00007,-24.91276 -39.02249,-44.76666 -3.96598,-5.61532 -4.46104,-5.2043 -2.87776,2.38919 1.21049,5.80552 5.52922,14.89479 9.7822,20.58779 9.43999,12.63629 28.50458,32.00725 37.12897,37.72565 2.81959,1.86953 5.12652,3.45425 5.12652,3.52162 0,0.0674 -3.57972,0.12247 -7.95495,0.12247 -9.28215,0 -12.02392,0.7739 -16.51614,4.66189 -3.24292,2.80673 -4.0028,2.9848 -9.82358,2.30199 z m 123.51056,-45.42746 c 8.13195,-1.85924 11.21178,-3.54238 14.38046,-7.85901 1.4514,-1.97719 2.52128,-3.69836 2.37751,-3.82479 -0.14376,-0.12645 -10.12553,-0.42995 -22.1817,-0.67444 -22.6419,-0.45918 -24.65066,-0.59932 -31.85526,-2.22225 -12.79972,-2.8833 -23.11531,-10.00224 -27.31674,-18.85166 -1.73912,-3.66311 -3.26598,-4.23626 -7.25001,-2.72154 -2.83737,1.07877 -2.27659,3.38074 1.91338,7.85424 2.03359,2.17121 4.01564,4.44641 4.40455,5.05601 3.30724,5.18394 11.88657,15.39085 14.97248,17.81287 4.01998,3.15515 10.03396,5.61064 16.49377,6.73437 6.37097,1.10827 26.9584,0.32022 34.06156,-1.3038 z m 6.66025,-33.48454 c -0.78056,-11.48589 1.61408,-10.14197 -19.02807,-10.67896 -9.79256,-0.25474 -19.23654,-0.63658 -20.98663,-0.84852 -7.26829,-0.88023 -18.35299,-3.28031 -22.98097,-4.97587 -8.33145,-3.05241 -7.90601,-3.13406 -5.61388,1.07735 5.52922,10.159 20.42841,17.97099 39.90856,20.92498 9.30934,1.41168 10.50693,1.50756 20.4304,1.6357 l 8.76315,0.11317 z m 15.2816,5.0468 c 9.29837,-1.95251 19.47738,-8.46017 26.32415,-16.82961 3.99153,-4.8792 11.40263,-16.8754 10.79858,-17.47944 -0.19307,-0.19308 -5.87238,2.45075 -12.62069,5.87517 -14.81591,7.51833 -19.60529,9.41719 -28.88665,11.45283 l -5.3033,1.16314 -0.20294,7.37069 c -0.11162,4.05388 -0.0421,7.78994 0.15459,8.30237 0.44153,1.15062 4.64847,1.21321 9.73626,0.14485 z m -23.47355,-24.98335 c 14.54779,-2.19307 28.8471,-8.43222 48.54419,-21.18101 0.0607,-0.0393 0.27515,-1.026 0.47661,-2.19273 0.20147,-1.16672 1.18597,-4.80252 2.18779,-8.07956 2.86298,-9.36509 2.71868,-10.06188 -3.30505,-15.95927 -5.16817,-5.05978 -13.41401,-14.08114 -16.26421,-17.79382 -0.84781,-1.10438 -1.72517,-2.16707 -1.94967,-2.36152 -0.55657,-0.48209 -6.37939,-7.77044 -8.12585,-10.17103 -0.77782,-1.06915 -2.86905,-3.91147 -4.64718,-6.31627 -5.63535,-7.62139 -14.09115,-22.68886 -14.09115,-25.10915 0,-1.72946 -2.29145,-6.40079 -3.33654,-6.80183 -0.60793,-0.23329 -1.73905,-0.22302 -2.51359,0.0228 -1.30321,0.41362 -1.38034,0.90279 -1.03388,6.55677 0.68117,11.11653 6.32605,24.77928 15.57514,37.69781 3.92584,5.48335 16.2382,20.65579 21.49069,26.48282 5.06726,5.62152 6.07049,7.61621 6.03117,11.99158 -0.0623,6.93057 -0.93564,7.76057 -15.35334,14.59105 -12.61147,5.97477 -22.705,9.16903 -30.27376,9.58063 -8.05826,0.43822 -10.90404,-0.69441 -13.09969,-5.2137 -0.8403,-1.72964 -1.52783,-3.5558 -1.52783,-4.05817 0,-1.943 -2.2129,-8.24116 -2.89558,-8.24116 -0.39571,0 -1.38966,1.51144 -2.20879,3.35876 -3.1253,7.04832 -1.21794,18.21224 3.83851,22.46696 1.90211,1.60052 2.6709,1.75109 8.92152,1.74728 3.76202,-0.002 9.86423,-0.46007 13.56049,-1.01728 z M 74.126074,224.43267 c 0.214429,-12.0047 1.114179,-16.46719 3.783061,-18.76287 3.905689,-3.35953 6.521409,-1.42264 11.993165,8.88072 1.868511,3.51841 3.991837,6.93518 4.718502,7.5928 1.240981,1.12307 1.349273,1.12254 1.783372,-0.009 0.914287,-2.3826 -0.221248,-14.08249 -1.686131,-17.37291 -4.762716,-10.69799 -15.095282,-17.034 -24.21193,-14.84695 -4.595581,1.10246 -8.598994,4.94603 -10.212941,9.80517 -1.77519,5.3446 -1.264213,6.23029 1.877853,3.25497 2.675752,-2.53377 6.407652,-3.87373 7.203268,-2.5864 0.244404,0.39545 0.106984,1.6064 -0.305375,2.69098 -2.414085,6.34953 -1.993071,20.06439 0.810488,26.4023 1.282288,2.89882 3.431956,5.95394 3.876539,5.50936 0.101659,-0.10166 0.268216,-4.85297 0.370129,-10.55847 z M 245.87813,185.60293 c 3.08395,-1.03392 8.34828,-4.99635 10.03388,-7.55241 1.46245,-2.21768 1.73839,-8.56091 0.47802,-10.98872 -0.44099,-0.84948 -2.58883,-3.46301 -4.77297,-5.80785 -2.18414,-2.34484 -4.67044,-5.11233 -5.52511,-6.14996 -1.58396,-1.92305 -6.15532,-11.21723 -9.7463,-19.81551 -1.09636,-2.62514 -2.26385,-4.77297 -2.59441,-4.77297 -1.16916,0 -1.04561,7.44433 0.2171,13.08147 1.02724,4.58589 5.20341,14.30156 8.91313,20.73598 l 2.93104,5.08382 -1.71899,1.12632 c -3.33098,2.18255 -6.64235,2.42997 -15.89306,1.18755 -4.86135,-0.65291 -10.11162,-1.20433 -11.66726,-1.22536 -2.71585,-0.0367 -2.86613,0.0809 -3.7759,2.95575 -0.84503,2.67029 -0.80681,3.28188 0.35356,5.65685 1.60087,3.27657 7.07443,6.24413 13.32464,7.22412 5.16186,0.80935 16.05969,0.39508 19.44263,-0.73908 z m 103.17178,-6.67874 c 2.49171,-0.58734 6.37785,-2.05257 8.63584,-3.25607 4.43015,-2.36125 9.82222,-7.05409 9.80269,-8.53151 -0.006,-0.50172 -0.95913,-2.5032 -2.11667,-4.44774 -2.21117,-3.71456 -12.70075,-24.7271 -14.91389,-29.87527 -1.89818,-4.41553 -2.75637,-3.76914 -2.75637,2.07615 0,5.94688 1.35087,11.80452 4.67506,20.27199 1.3178,3.35675 2.39601,6.472 2.39601,6.92276 0,1.33008 -3.90035,2.3115 -12.53832,3.15495 -9.9253,0.96915 -11.78851,1.43899 -12.09909,3.05096 -0.49273,2.55737 0.71003,6.07118 2.79011,8.15126 3.58026,3.58026 8.35137,4.31481 16.12463,2.48252 z M 175.94179,124.85865 c 5.98953,-11.47096 11.72895,-17.72069 20.15539,-21.94749 l 4.87967,-2.44769 h 10.04024 c 9.4422,0 10.06287,-0.0842 10.42017,-1.414214 1.35276,-5.035364 -0.57016,-9.026883 -5.67025,-11.770033 -6.59386,-3.546586 -12.87909,-3.232063 -21.86122,1.093972 -12.55933,6.048902 -23.05253,18.849565 -25.09693,30.615735 -0.89352,5.14248 0.25084,9.01344 2.96842,10.04111 0.89233,0.33744 1.65441,0.57106 1.69352,0.51916 0.0391,-0.0519 1.15105,-2.16264 2.47099,-4.69055 z"
     id="path2395" />
  <path
     style="fill:#828282;fill-opacity:0.0196078;fill-rule:evenodd;stroke:#000000;stroke-width:5.34506;stroke-linejoin:round;stroke-opacity:0"
     d="M 110.54108,190.06871 C 108.1821,169.2181 82.588357,156.94215 61.20087,166.40285 l -3.297087,1.45846 -0.523197,-6.12176 c -0.287759,-3.36696 -0.511033,-10.89472 -0.496165,-16.72835 0.03197,-12.54277 1.278668,-19.54301 4.829867,-27.11977 C 68.349383,103.73494 89.102,90.966364 109.4973,88.491722 l 3.97986,-0.482892 1.32344,5.166659 c 2.09653,8.184761 1.73183,20.272131 -1.16929,38.754231 -1.91723,12.21408 -2.38916,17.28795 -2.4006,25.8094 -0.0134,9.99078 0.12691,11.09926 2.41678,19.09188 3.47336,12.12354 3.23828,15.60383 -1.14239,16.91269 -1.37308,0.41025 -1.5364,0.10466 -1.96402,-3.67498 z"
     id="path2397" />
  <path
     style="fill:#828282;fill-opacity:1;fill-rule:evenodd;stroke:#000000;stroke-width:5.34506;stroke-linejoin:round;stroke-opacity:0"
     d="m 173.63961,355.76052 c -0.13195,-0.11696 -2.14911,-0.39059 -4.48256,-0.60808 -2.33345,-0.21749 -6.10591,-0.72237 -8.38323,-1.12196 -2.27733,-0.39958 -4.34561,-0.68151 -4.5962,-0.62651 -0.25058,0.055 -1.88749,-0.29033 -3.63758,-0.76739 -1.75009,-0.47707 -5.56847,-1.51989 -8.48528,-2.31738 -5.41629,-1.48087 -9.98731,-3.5088 -12.19759,-5.41143 -0.68059,-0.58586 -1.24231,-0.77723 -1.24827,-0.42528 -0.006,0.35196 -0.2446,0.32173 -0.53033,-0.0672 -0.28572,-0.38891 -2.17641,-2.21855 -4.20152,-4.06587 -2.02511,-1.84731 -3.51382,-3.35876 -3.30825,-3.35876 0.20557,0 -0.0467,-0.44178 -0.56062,-0.98175 -2.02564,-2.12831 -3.13947,-3.79107 -5.14956,-7.68745 -1.15162,-2.2323 -2.36364,-4.05872 -2.69338,-4.05872 -0.32975,0 -0.40288,-0.3182 -0.16252,-0.70711 0.24036,-0.38891 0.0813,-0.70711 -0.35355,-0.70711 -0.43482,0 -0.59392,-0.3182 -0.35356,-0.7071 0.24036,-0.38891 0.0813,-0.70711 -0.35355,-0.70711 -0.43481,0 -0.59391,-0.3182 -0.35355,-0.70711 0.24035,-0.38891 0.0813,-0.70711 -0.35356,-0.70711 -0.43481,0 -0.59391,-0.31819 -0.35355,-0.7071 0.24036,-0.38891 0.0813,-0.70711 -0.35355,-0.70711 -0.43482,0 -0.59392,-0.3182 -0.35356,-0.70711 0.24036,-0.3889 0.10004,-0.7071 -0.31182,-0.7071 -0.41186,0 -0.68425,-0.23865 -0.60531,-0.53033 0.26547,-0.9809 -1.83475,-5.83363 -2.52475,-5.83363 -0.3756,0 -0.49398,-0.18893 -0.26307,-0.41984 0.23091,-0.23091 -0.6938,-3.01515 -2.05492,-6.18719 -2.03421,-4.74069 -4.20365,-10.67326 -4.88872,-13.36874 -0.0741,-0.29168 -0.21224,-0.76898 -0.30691,-1.06066 -0.0947,-0.29168 -0.13812,-0.75794 -0.0966,-1.03613 0.0416,-0.27819 -0.257713,-1.38239 -0.665053,-2.45378 -1.177004,-3.09576 -2.922037,-12.37079 -2.818034,-14.97814 0.140562,-3.52393 0.231173,-3.75593 2.232477,-5.7163 1.0117,-0.99101 3.15954,-3.50094 4.77297,-5.57763 2.48772,-3.20201 2.93187,-4.27658 2.92269,-7.07107 -0.0138,-4.19454 -0.63409,-5.12538 -3.21399,-4.82292 -2.41323,0.28292 -5.174874,1.69993 -9.14955,4.69466 -4.975793,3.74902 -7.074195,4.38796 -13.723455,4.17862 -3.341544,-0.10519 -6.234634,-0.36911 -6.429089,-0.58646 -0.194454,-0.21736 -2.089017,-1.32509 -4.21014,-2.46163 -3.403319,-1.82357 -6.387173,-4.42311 -9.950322,-8.66873 -2.813758,-3.3527 -9.174062,-15.1212 -9.174062,-16.97482 0,-0.51031 -0.371231,-0.92784 -0.824957,-0.92784 -0.453727,0 -0.640207,-0.18476 -0.4144,-0.41056 0.225808,-0.22581 -0.22537,-2.69185 -1.002617,-5.48008 -2.505811,-8.98915 -2.127229,-17.84037 1.060918,-24.8042 0.906434,-1.97992 1.680896,-3.86747 1.721027,-4.19457 0.04013,-0.32709 0.651,-1.03292 1.357488,-1.5685 0.706487,-0.53557 1.033846,-0.98389 0.727463,-0.99627 -1.147084,-0.0463 7.936069,-7.55107 11.461594,-9.4699 8.508265,-4.63078 20.861372,-3.62367 26.658417,2.17337 0.924811,0.92481 1.681474,1.84833 1.681474,2.05226 0,0.20393 0.875045,1.70091 1.944544,3.32661 1.069499,1.62571 2.009996,3.27404 2.089993,3.66294 0.08,0.38891 0.98515,3.2527 2.01145,6.36396 1.026304,3.11127 2.088404,6.45235 2.360234,7.42463 0.48285,1.72703 0.63562,1.76445 6.63019,1.62374 7.50114,-0.17607 10.59195,-0.96188 14.8333,-3.77123 2.57799,-1.70759 3.20239,-2.49471 2.95211,-3.72139 -0.17458,-0.85566 -0.47368,-2.66944 -0.66466,-4.03062 -0.19098,-1.36118 -0.99578,-5.33865 -1.78844,-8.83883 -0.79266,-3.50018 -2.04492,-9.06865 -2.7828,-12.37437 -1.29788,-5.81449 -1.96685,-20.57936 -1.12133,-24.74874 0.19717,-0.97227 0.5474,-3.04056 0.77828,-4.59619 0.23088,-1.55564 0.55852,-3.46483 0.72808,-4.24264 0.16957,-0.77782 0.60116,-3.00521 0.95911,-4.94975 0.35796,-1.94455 0.82751,-4.01283 1.04347,-4.5962 0.21595,-0.58336 1.04502,-4.87903 1.84237,-9.54594 1.96321,-11.49063 1.99975,-24.45554 0.0867,-30.759142 -1.75378,-5.778739 -1.91016,-6.998043 -1.17896,-9.192389 0.56634,-1.69959 4.84732,-8.732166 7.10226,-11.667261 2.06616,-2.68934 16.1905,-16.717313 18.34651,-18.221328 1.19015,-0.83024 2.32302,-1.685765 2.51747,-1.901167 0.19446,-0.215403 2.26274,-1.800443 4.5962,-3.522311 2.33345,-1.721869 4.40174,-3.311557 4.59619,-3.532642 0.19445,-0.221084 1.2286,-0.852981 2.2981,-1.404214 1.0695,-0.551234 1.94454,-1.266673 1.94454,-1.589864 0,-0.32319 0.4773,-0.587619 1.06066,-0.587619 0.58336,0 1.06066,-0.287071 1.06066,-0.637935 0,-0.350863 0.87505,-0.987664 1.94455,-1.415113 2.22414,-0.888928 8.13303,-4.290632 8.66205,-4.986682 0.19446,-0.25585 1.3877,-0.883468 2.65165,-1.394707 1.26396,-0.511239 2.2981,-1.262152 2.2981,-1.668696 0,-0.406544 0.19406,-0.545115 0.43124,-0.307936 0.23717,0.23718 1.58952,-0.287376 3.0052,-1.165682 6.58686,-4.08656 20.07954,-9.066987 27.67626,-10.215884 4.55713,-0.689202 29.26637,-0.345537 34.29468,0.476982 2.33345,0.381701 5.35633,0.859502 6.71751,1.06178 1.36118,0.202279 4.19365,0.848598 6.29437,1.436264 2.10072,0.587666 4.00991,1.034045 4.24264,0.991952 0.23273,-0.04209 0.90044,0.09341 1.48381,0.301123 0.58336,0.20771 4.87903,1.59158 9.54594,3.075268 4.6669,1.483686 9.28078,3.112387 10.25305,3.619335 0.97227,0.506948 2.02426,0.923683 2.33776,0.926079 0.31349,0.0024 2.46133,0.942749 4.77297,2.089673 2.31164,1.146925 4.20785,1.86287 4.2138,1.59099 0.006,-0.271879 0.27646,-0.07542 0.60112,0.436569 0.32466,0.511992 1.03573,1.016043 1.58016,1.120114 1.08663,0.207713 3.8849,1.344951 7.70739,3.132341 2.37054,1.10846 22.87412,21.125068 25.8094,25.196405 0.77782,1.078862 1.91582,2.504929 2.52889,3.169039 0.61307,0.66411 1.31903,1.740011 1.5688,2.390892 0.24976,0.650881 0.7823,1.18342 1.18342,1.18342 0.40111,0 0.7293,0.487284 0.7293,1.082853 0,0.595568 0.47729,1.266008 1.06066,1.489866 0.58336,0.223857 1.06066,0.850267 1.06066,1.392021 0,0.541754 0.28415,0.985008 0.63145,0.985008 0.74617,0 1.68385,2.163044 1.16332,2.683562 -0.1979,0.197906 -2.5552,0.295725 -5.23844,0.217376 -8.76243,-0.255856 -16.70526,3.605227 -19.49039,9.474449 -0.60917,1.283717 -1.10757,4.124921 -1.10757,6.313791 v 3.97976 l 4.55098,-2.415088 c 4.29221,-2.277768 4.88524,-2.402056 10.42982,-2.185823 7.18161,0.280078 7.80836,0.405802 12.24281,2.455846 1.94454,0.898959 3.69463,1.681366 3.88908,1.738684 1.77171,0.522226 5.31921,3.558731 8.83884,7.565671 2.33345,2.65653 4.66311,5.30509 5.17703,5.88568 0.51391,0.58061 0.74439,1.05564 0.51217,1.05564 -0.23222,0 0.0697,0.95126 0.67093,2.11391 0.60123,1.16266 1.09925,2.27192 1.10671,2.46503 0.007,0.19312 0.50427,1.7079 1.10401,3.36617 1.06392,2.94173 1.37678,4.32742 1.95801,8.6719 0.15609,1.16673 0.45491,3.39412 0.66405,4.94975 1.50873,11.22242 1.68968,15.46066 1.8113,42.42641 0.12065,26.74889 -0.56537,36.46075 -3.52199,49.86056 -0.38731,1.75535 -0.80564,3.98273 -0.92962,4.94975 -0.12397,0.96703 -0.42517,2.55373 -0.66934,3.526 -0.24415,0.97227 -0.59833,2.56326 -0.78706,3.53553 -0.18872,0.97227 -0.99265,3.99515 -1.78651,6.71752 -0.79385,2.72236 -1.57504,5.58614 -1.73598,6.36396 -0.60964,2.9464 -5.98979,17.19976 -8.54107,22.62741 -1.46245,3.11127 -2.66665,6.05461 -2.67598,6.54074 -0.009,0.48614 -0.30093,0.88389 -0.64797,0.88389 -0.34705,0 -0.43433,0.31819 -0.19397,0.7071 0.24036,0.38891 0.15855,0.70711 -0.18181,0.70711 -0.34036,0 -1.55237,1.98874 -2.69338,4.41942 -1.14101,2.43068 -2.6204,5.02445 -3.28754,5.76393 -0.66715,0.7395 -1.04611,1.61454 -0.84216,1.94455 0.20396,0.33001 0.0676,0.60002 -0.30308,0.60002 -0.37066,0 -2.33829,2.78423 -4.37252,6.18718 -2.03424,3.40296 -3.97714,6.29326 -4.31757,6.42289 -0.34042,0.12964 -0.61895,0.68649 -0.61895,1.23744 0,0.55095 -0.3182,1.00173 -0.70711,1.00173 -0.38891,0 -0.70711,0.30181 -0.70711,0.67068 0,0.36887 -0.79549,1.52903 -1.76776,2.57813 -0.97227,1.04909 -1.76777,2.33828 -1.76777,2.86485 0,0.52658 -0.32818,0.95741 -0.7293,0.95741 -0.40112,0 -0.9272,0.51572 -1.16907,1.14603 -0.24187,0.63032 -1.89736,2.45995 -3.67887,4.06586 -1.78151,1.60591 -4.14368,3.79488 -5.24929,4.86438 -1.10559,1.0695 -2.3039,1.94455 -2.66289,1.94455 -0.359,0 -0.65271,0.33697 -0.65271,0.74884 0,0.41186 -0.29864,0.56426 -0.66365,0.33867 -0.36501,-0.22558 -0.99173,0.15339 -1.39271,0.84216 -0.40099,0.68877 -0.73875,0.99837 -0.75057,0.68801 -0.0118,-0.31037 -1.53294,0.48128 -3.38026,1.7592 -1.84732,1.27793 -3.51786,2.35578 -3.71231,2.39522 -0.19445,0.0395 -3.78712,1.71374 -7.9837,3.72065 -8.82711,4.22137 -19.9209,8.22484 -27.01809,9.75016 -6.85269,1.47278 -22.33939,2.01419 -28.36419,0.99161 -2.6784,-0.45461 -5.50622,-0.93596 -6.28404,-1.06969 -0.77782,-0.13372 -2.60593,-0.75168 -4.06249,-1.37322 -1.45655,-0.62156 -2.88844,-1.16459 -3.18198,-1.20674 -0.29353,-0.0421 -1.1701,-0.32646 -1.94792,-0.63181 -4.68997,-1.84117 -5.68453,-2.19214 -5.93135,-2.09314 -0.15097,0.0605 -0.46916,-0.15572 -0.70711,-0.48062 -0.48447,-0.66154 -4.9945,-3.03749 -6.08946,-3.20801 -0.38891,-0.0605 -1.12758,-0.5306 -1.6415,-1.04451 -0.51391,-0.51392 -1.36244,-0.9344 -1.88562,-0.9344 -0.52317,0 -1.05728,-0.23864 -1.18693,-0.53033 -0.12963,-0.29168 -2.14488,-1.80312 -4.47834,-3.35875 -2.33345,-1.55564 -4.3487,-3.06708 -4.47834,-3.35876 -0.12964,-0.29168 -0.48349,-0.53033 -0.78634,-0.53033 -1.04289,0 -10.70034,-9.04597 -16.8324,-15.76662 -1.65287,-1.81152 -3.00639,-3.06213 -3.00785,-2.77914 -0.001,0.28299 -0.63317,-0.51961 -1.40382,-1.78356 -0.77065,-1.26395 -1.77709,-2.2981 -2.23653,-2.2981 -0.45944,0 -0.62839,-0.20695 -0.37545,-0.4599 0.25295,-0.25295 -0.3468,-1.20754 -1.33279,-2.12132 -0.98599,-0.91378 -1.59448,-1.66142 -1.3522,-1.66142 0.24227,0 0.02,-0.44178 -0.4939,-0.98175 -1.28737,-1.35262 -2.71167,-3.12109 -5.18898,-6.44287 -1.16016,-1.55563 -2.82532,-3.62067 -3.70037,-4.58897 -0.87504,-0.96829 -1.59099,-2.02516 -1.59099,-2.3486 0,-0.32344 -0.39774,-1.00737 -0.88388,-1.51986 -0.48614,-0.51249 -1.52028,-1.81773 -2.2981,-2.90052 -0.77781,-1.08279 -1.9856,-2.62949 -2.68398,-3.43711 -1.23958,-1.43349 -1.25909,-1.37596 -0.82123,2.42069 1.18283,10.25611 7.28057,21.53971 18.34204,33.94113 11.21758,12.57645 25.34744,25.86108 31.48784,29.6043 1.35614,0.82671 2.1475,1.52677 1.75859,1.5557 -0.3889,0.0289 -3.09359,0.0175 -6.0104,-0.0253 -7.31234,-0.10742 -12.46974,1.01143 -15.39678,3.34018 -4.00048,3.18278 -4.63961,3.52425 -7.34427,3.92401 -1.42368,0.21042 -2.69647,0.28689 -2.82843,0.16994 z M 287.24388,311.5495 c 3.11127,-0.38879 6.13415,-0.81824 6.71752,-0.95433 0.58336,-0.13609 2.33345,-0.50102 3.88908,-0.81096 3.80461,-0.758 8.84725,-3.36564 10.73153,-5.54945 2.08263,-2.41368 4.01689,-5.4167 3.68317,-5.71829 -0.14991,-0.13548 -9.18211,-0.45998 -20.07155,-0.72111 -23.59374,-0.56579 -26.11428,-0.75233 -34.9498,-2.58658 -11.0286,-2.28953 -22.0655,-10.10335 -26.12947,-18.49895 -1.37433,-2.83918 -1.93711,-3.35875 -3.63805,-3.35875 -3.2859,0 -5.63981,1.20692 -5.63981,2.89168 0,0.83186 1.60555,3.36579 3.56789,5.63094 3.18335,3.67459 6.56975,7.95275 11.44461,14.45835 5.8889,7.85887 13.62836,13.05218 22.11061,14.8366 5.28747,1.11233 20.76316,1.32071 28.28427,0.38085 z m 14.71063,-27.99003 c 0.7876,-0.30223 1.06754,-0.96873 0.82892,-1.97361 -0.19816,-0.8345 -0.47898,-3.74465 -0.62405,-6.46702 -0.14506,-2.72236 -0.49247,-5.82479 -0.77199,-6.89429 l -0.50824,-1.94454 -7.17119,-0.0636 c -28.93664,-0.25659 -42.75682,-1.98656 -57.21593,-7.16211 -2.24553,-0.80378 -4.23565,-1.30856 -4.42248,-1.12173 -0.60841,0.60842 1.7321,4.54955 4.71284,7.93585 5.72554,6.50456 15.11186,11.5569 26.91522,14.48757 5.78505,1.43638 8.09327,1.87418 15.06099,2.85656 4.73095,0.66701 21.70036,0.92081 23.19591,0.34691 z m 19.47261,-2.95454 c 8.05045,-2.66979 13.46333,-6.20347 20.20932,-13.19317 4.64222,-4.80994 13.82351,-19.06486 12.88423,-20.00413 -0.16926,-0.16926 -3.20343,1.14654 -6.74259,2.92402 -3.53916,1.77747 -6.60237,3.21562 -6.80712,3.19589 -0.67834,-0.0654 -10.58905,5.2839 -10.83074,5.84586 -0.13044,0.30331 -0.52819,0.3716 -0.88388,0.15177 -0.35569,-0.21983 -0.64671,-0.0727 -0.64671,0.32696 0,0.39965 -0.43627,0.55923 -0.96949,0.35461 -0.53321,-0.20461 -1.4111,0.0696 -1.95086,0.60935 -0.53975,0.53975 -1.37627,0.84973 -1.85894,0.68884 -0.48266,-0.16089 -0.87757,-0.016 -0.87757,0.32199 0,0.33798 -0.55684,0.64383 -1.23743,0.67967 -0.68059,0.0358 -4.10122,0.82832 -7.6014,1.76106 l -6.36396,1.69589 -0.20294,7.35828 c -0.11162,4.04704 -0.0357,7.79403 0.16866,8.32662 0.57455,1.49727 7.6808,0.95644 13.71142,-1.04351 z m -28.75173,-23.53644 c 1.67957,-0.30899 4.30132,-0.75619 5.8261,-0.99377 6.72124,-1.04727 19.58881,-6.05271 27.98682,-10.88676 2.139,-1.23125 4.68458,-2.63077 5.65685,-3.11004 0.97227,-0.47928 1.92687,-1.05227 2.12132,-1.27331 0.19446,-0.22104 1.81081,-1.24332 3.59191,-2.27174 3.84947,-2.2227 4.69846,-3.15031 5.14696,-5.6236 0.18555,-1.0233 0.6929,-2.52486 1.12744,-3.33679 0.43453,-0.81193 0.65312,-1.47624 0.48576,-1.47624 -0.16735,0 0.29875,-1.93753 1.03579,-4.30563 2.35724,-7.57383 2.07468,-8.64569 -3.83778,-14.55815 -2.84782,-2.84782 -5.01828,-5.17785 -4.82325,-5.17785 0.19503,0 -1.06795,-1.36304 -2.80663,-3.02898 -1.73866,-1.66594 -3.62523,-3.68186 -4.19236,-4.47981 -0.56713,-0.79794 -2.46303,-3.12754 -4.21312,-5.17687 -1.75009,-2.04933 -3.65928,-4.28668 -4.24264,-4.97188 -0.58336,-0.6852 -1.85616,-2.30629 -2.82843,-3.60241 -0.97227,-1.29612 -2.26,-2.86492 -2.86163,-3.48622 -0.60163,-0.6213 -2.16665,-2.78523 -3.47784,-4.80874 -1.31119,-2.02351 -2.64859,-3.67911 -2.972,-3.67911 -0.32342,0 -0.58802,-0.4173 -0.58802,-0.92732 0,-0.51003 -0.6364,-1.61042 -1.41422,-2.44531 -0.77781,-0.83489 -1.41421,-1.72081 -1.41421,-1.96872 0,-0.24791 -0.71545,-1.45446 -1.58989,-2.68122 -0.87444,-1.22676 -1.60637,-2.38957 -1.6265,-2.58403 -0.0202,-0.19445 -1.36124,-2.94828 -2.98023,-6.11961 -1.61898,-3.17133 -3.08174,-6.51241 -3.25058,-7.42462 -0.83697,-4.5221 -2.87994,-6.70169 -5.50166,-5.86959 -3.00437,0.95356 -0.93339,14.81229 3.93806,26.3529 3.67451,8.70507 11.08225,19.75799 21.13195,31.53054 1.62818,1.9073 3.43762,4.14371 4.02099,4.96979 1.18726,1.68125 3.3094,4.24097 5.03302,6.07084 3.69904,3.92703 7.04851,9.27598 7.57574,12.09809 0.61965,3.31683 -0.70227,7.85037 -2.79565,9.58771 -1.25245,1.03945 -13.82687,7.31106 -19.0055,9.47918 -2.139,0.89553 -4.08376,1.91081 -4.3217,2.25619 -0.23794,0.34539 -0.64098,0.57668 -0.89565,0.51398 -1.10899,-0.27301 -4.68215,0.87578 -4.68215,1.50533 0,0.38096 -0.26424,0.52935 -0.5872,0.32974 -0.32296,-0.1996 -2.3117,0.10895 -4.41942,0.68566 -6.179,1.6907 -20.47283,1.34818 -19.353,-0.46374 0.2208,-0.35727 -0.14765,-0.64957 -0.81879,-0.64957 -0.67113,0 -1.01087,-0.20938 -0.75497,-0.46527 0.2559,-0.25591 0.196,-0.81275 -0.1331,-1.23744 -0.74517,-0.96159 -2.2178,-5.13499 -2.64282,-7.48968 -0.5504,-3.04938 -1.85783,-5.72002 -2.677,-5.46822 -0.43288,0.13306 -1.4086,1.4974 -2.16825,3.03185 -3.13063,6.32361 -0.96818,18.42106 4.04716,22.64119 2.02022,1.69991 2.51518,1.78162 10.11037,1.66923 4.39239,-0.065 9.36037,-0.37098 11.03995,-0.67998 z M 74.345628,223.1465 c 0.543164,-13.33461 1.577676,-16.81709 5.475312,-18.43155 2.116496,-0.87668 2.26897,-0.80792 5.209518,2.34924 1.666064,1.78879 2.847148,3.4344 2.624631,3.65691 -0.222516,0.22252 -0.01457,0.40458 0.462113,0.40458 0.476679,0 0.697153,0.27432 0.489944,0.60959 -0.533431,0.86311 4.737559,9.3701 6.552418,10.57511 l 1.509404,1.00222 -0.21024,-7.68445 C 96.277686,209.01091 95.9865,207.39993 94.362035,204.02826 91.802743,198.7163 88.437973,194.98443 83.571094,192.06 c -3.54333,-2.12912 -4.691349,-2.45209 -8.797272,-2.47487 -4.048633,-0.0225 -5.218546,0.27982 -8.20247,2.11939 -3.749798,2.31172 -6.372025,6.47789 -7.16921,11.39036 l -0.427081,2.6318 2.296904,-1.71992 c 3.829615,-2.86761 6.016416,-4.18715 6.94559,-4.19107 1.054101,-0.004 1.170397,3.08944 0.185316,4.93007 -1.840217,3.43848 -1.225211,17.02334 1.092037,24.12195 0.921339,2.82242 3.628727,6.81518 4.183423,6.16958 0.105628,-0.12295 0.405912,-5.4738 0.667297,-11.89079 z M 246.93504,185.03724 c 7.23759,-3.20153 10.2455,-7.07953 10.25214,-13.21778 l 0.005,-4.30443 -5.02033,-5.77184 c -2.76119,-3.17451 -5.22722,-5.77432 -5.48008,-5.77735 -0.25286,-0.003 -0.79408,-0.71898 -1.20273,-1.59099 -0.40863,-0.87202 -1.95528,-3.97196 -3.43697,-6.88878 -1.48169,-2.91682 -2.95044,-5.9397 -3.26388,-6.71751 -1.74159,-4.32177 -4.63758,-10.2211 -5.02484,-10.23592 -1.71728,-0.0657 -1.05591,9.11377 1.16264,16.13673 2.13739,6.76604 8.20353,19.56379 10.23721,21.59747 0.90095,0.90096 0.94064,2.06939 0.0516,1.51995 -0.36501,-0.22558 -0.93571,0.076 -1.26823,0.67017 -0.65913,1.17781 -11.4445,2.59731 -13.08299,1.7219 -1.07565,-0.5747 -9.54038,-1.57746 -13.97651,-1.6557 -3.13607,-0.0553 -3.19565,-0.0129 -4.12946,2.93788 -0.84503,2.67029 -0.80681,3.28188 0.35356,5.65685 1.69041,3.45982 7.02475,6.39512 12.71354,6.99583 2.27911,0.24066 4.30293,0.59426 4.49739,0.78579 0.93089,0.91688 13.52099,-0.49442 16.61325,-1.86227 z m 102.71647,-6.14597 c 5.21787,-1.48816 11.11451,-4.60116 14.6158,-7.7161 2.12636,-1.89173 2.76178,-2.97892 2.76178,-4.72528 0,-1.24754 -0.37123,-2.39199 -0.82495,-2.54323 -0.45373,-0.15124 -0.82496,-0.66213 -0.82496,-1.1353 0,-0.47317 -0.39775,-1.25806 -0.88388,-1.7442 -0.48614,-0.48613 -0.90152,-1.10662 -0.92308,-1.37885 -0.11508,-1.4532 -14.67885,-29.83991 -15.30933,-29.83991 -1.33048,0 -0.17519,13.95917 1.55083,18.73833 1.95079,5.40155 2.24511,6.31514 2.11917,6.57802 -0.0564,0.11773 0.35004,0.91323 0.90317,1.76776 1.81537,2.80457 2.01593,5.06051 0.56069,6.30653 -0.7332,0.62777 -1.45816,1.01633 -1.61105,0.86344 -0.15288,-0.15288 -2.16851,0.0152 -4.47917,0.37351 -2.31067,0.3583 -6.12073,0.83673 -8.4668,1.06317 -7.00944,0.67655 -8.43007,1.24991 -8.69432,3.50904 -0.1276,1.0908 -0.0482,2.71574 0.17653,3.61097 0.47958,1.91077 4.26813,5.8833 6.34275,6.65075 2.64015,0.97665 8.87183,0.79496 12.98682,-0.37865 z M 175.38506,126.19381 c 0.33566,-0.23794 0.59259,-0.62979 0.57096,-0.87079 -0.0216,-0.241 0.94009,-2.01373 2.13717,-3.93941 1.19707,-1.92568 2.06263,-3.70405 1.92347,-3.95193 -0.13915,-0.24787 0.30384,-0.76231 0.98443,-1.14318 0.68059,-0.38088 1.23743,-0.9674 1.23743,-1.30338 0,-1.42894 8.02365,-8.39948 12.84147,-11.15603 l 5.22566,-2.98989 10.35217,-0.0982 c 9.91943,-0.0941 10.36905,-0.16103 10.75578,-1.602078 1.67967,-6.258927 -1.46288,-10.884954 -9.17674,-13.508707 -10.93895,-3.720722 -27.97849,5.286088 -37.82307,19.992625 -6.84412,10.22424 -8.06228,21.3415 -2.56807,23.43695 1.23235,0.47002 1.69627,0.27953 2.24151,-0.92036 0.37815,-0.83217 0.96217,-1.70771 1.29783,-1.94565 z"
     id="path2401" />
  <path
     style="fill:#828282;fill-opacity:1;fill-rule:evenodd;stroke:#000000;stroke-width:5.34506;stroke-linejoin:round;stroke-opacity:0"
     d="m 111.30612,193.62479 c -0.16785,-0.29168 -0.52003,-2.12132 -0.78261,-4.06587 -1.15488,-8.55238 -8.18884,-17.9909 -16.554772,-22.21401 -10.739311,-5.42119 -21.904931,-5.74725 -32.736377,-0.95599 l -3.265596,1.44453 -0.469966,-4.58713 c -0.82323,-8.0352 -0.482897,-27.81116 0.575447,-33.43792 1.138432,-6.05256 3.86476,-14.14214 4.766144,-14.14214 0.333407,0 0.606195,-0.4073 0.606195,-0.90511 0,-2.23208 11.119435,-12.76593 16.617009,-15.741903 11.644622,-6.303519 18.421807,-8.839877 27.418326,-10.261296 3.02392,-0.477767 5.63584,-0.730853 5.80428,-0.562414 0.16844,0.16844 0.78851,2.157748 1.37793,4.420685 1.08455,4.163886 1.62703,20.970128 0.83623,25.906798 -0.21556,1.3456 -0.54589,3.71934 -0.73409,5.27497 -0.1882,1.55564 -1.0004,7.26887 -1.8049,12.69607 -2.83272,19.10975 -2.62971,29.70542 0.77166,40.2758 0.76169,2.36708 1.5742,6.55916 1.80557,9.31575 0.38734,4.61477 0.29064,5.13312 -1.22026,6.54074 -1.73115,1.61281 -2.50833,1.87058 -3.01022,0.99844 z"
     id="path2403" />
  <path
     style="fill:#828282;fill-opacity:1;fill-rule:evenodd;stroke:#000000;stroke-width:5.34506;stroke-linejoin:round;stroke-opacity:0"
     d="m 81.546455,80.841256 c 3.993214,-7.859368 15.424511,-19.860119 26.375605,-27.689516 12.12965,-8.671994 28.56562,-16.914762 43.75863,-21.945294 3.22198,-1.066827 6.33163,-1.757997 6.91032,-1.535932 2.96117,1.136303 1.25629,4.910721 -2.60078,5.757876 -1.13302,0.248852 -3.24786,1.579921 -4.69966,2.957933 -1.45178,1.378011 -5.06962,4.361291 -8.03962,6.629511 -6.80933,5.200354 -9.04215,7.827823 -14.75254,17.360053 -2.52791,4.219777 -6.2052,9.345037 -8.17175,11.389467 l -3.57555,3.717145 h -8.69208 c -8.264264,0 -9.107008,0.13921 -17.122576,2.828427 -10.562685,3.543773 -10.931667,3.564612 -9.389999,0.53033 z"
     id="path2405" />
  <path
     style="fill:#828282;fill-opacity:1;fill-rule:evenodd;stroke:#000000;stroke-width:5.34506;stroke-linejoin:round;stroke-opacity:0"
     d="m 27.412853,425.90937 c -0.697119,-2.32714 -9.19506,-23.7036 -11.065438,-27.83498 -0.361786,-0.79913 19.78981,-16.1311 34.015694,-25.8802 19.748431,-13.53375 51.207271,-30.2442 54.646491,-29.02738 0.49851,0.17638 5.37347,5.46151 10.83324,11.74475 12.1189,13.94669 15.32811,16.21135 41.47017,29.26448 11.11652,5.55065 17.85445,9.30477 17.85445,9.94784 0,2.19022 3.8033,17.86607 6.33937,26.12863 l 2.65869,8.66206 H 106.23931 28.313098 Z"
     id="path2407" />
  <path
     style="fill:#828282;fill-opacity:1;fill-rule:evenodd;stroke:#000000;stroke-width:5.34506;stroke-linejoin:round;stroke-opacity:0"
     d="m 196.77431,437.24251 c -0.60542,-0.86434 -1.10076,-1.83563 -1.10076,-2.1584 0,-0.32276 -1.87051,-5.58178 -4.15669,-11.6867 -5.03824,-13.45389 -6.1895,-18.45315 -6.78986,-29.48463 -0.86854,-15.95922 1.76088,-27.84945 6.72653,-30.41728 2.85881,-1.47835 5.87332,-1.31407 13.83224,0.75383 12.00807,3.11996 26.06551,9.14266 39.5317,16.93676 2.33346,1.35058 5.75409,2.65975 7.6014,2.90927 2.88362,0.3895 3.35876,0.68 3.35876,2.05357 0,1.89233 -2.49735,3.05266 -11.26864,5.23571 -8.56125,2.13077 -8.82927,2.52569 -2.41481,3.55815 3.05344,0.49148 7.46091,1.60541 9.79436,2.47539 l 4.24264,1.58178 0.20814,4.6626 c 0.17984,4.02876 0.0199,4.76332 -1.17644,5.40359 -0.76152,0.40755 -5.30995,3.97934 -10.10763,7.9373 -11.65272,9.61319 -17.59229,13.39318 -26.37623,16.78605 -13.61667,5.25956 -19.94106,6.25652 -21.90471,3.45301 z"
     id="path2409" />
  <path
     style="fill:#828282;fill-opacity:1;fill-rule:evenodd;stroke:#000000;stroke-width:5.34506;stroke-linejoin:round;stroke-opacity:0"
     d="m 167.03468,377.3334 c -7.55808,-1.98266 -16.01445,-5.44506 -20.60718,-8.43744 -5.95966,-3.88301 -7.75937,-6.28738 -6.51692,-8.70648 0.57327,-1.11618 0.81575,-1.108 3.61676,0.12198 3.867,1.69808 9.13172,2.58134 21.38707,3.58812 5.44472,0.44728 10.20722,1.10426 10.58333,1.45995 0.43805,0.41426 0.24531,2.35784 -0.53627,5.40759 -0.67106,2.61849 -1.21743,5.47683 -1.21417,6.35188 0.007,1.88685 -0.29977,1.89665 -6.71262,0.2144 z"
     id="path2411" />
  <path
     style="fill:#828282;fill-opacity:1;fill-rule:evenodd;stroke:#000000;stroke-width:5.34506;stroke-linejoin:round;stroke-opacity:0"
     d="m 263.20225,372.30983 c -3.11127,-0.30283 -7.34831,-1.21767 -9.41564,-2.03297 -4.36142,-1.72003 -11.78945,-6.30637 -11.18796,-6.90786 0.22577,-0.22578 1.93107,0.0311 3.78954,0.57095 6.20477,1.8022 16.01005,1.10487 30.49485,-2.16873 7.13552,-1.61265 13.27102,-2.83297 13.63443,-2.71184 0.36341,0.12114 -2.86431,3.03792 -7.17271,6.48173 -7.0567,5.64059 -10.92772,7.71925 -13.77855,7.3988 -0.38891,-0.0437 -3.25269,-0.32725 -6.36396,-0.63008 z"
     id="path2413" />
  <path
     style="fill:#828282;fill-opacity:1;fill-rule:evenodd;stroke:#000000;stroke-width:5.34506;stroke-linejoin:round;stroke-opacity:0"
     d="m 264.58112,401.28022 c -1.0334,-1.67208 -2.39055,-9.01903 -2.41434,-13.0701 -0.0248,-4.22167 0.0137,-4.30701 2.47367,-5.48008 3.55693,-1.69618 8.1721,-1.54719 10.57294,0.34131 5.38735,4.23769 5.026,14.18416 -0.64084,17.63979 -2.41114,1.47031 -9.19562,1.85673 -9.99143,0.56908 z"
     id="path2415" />
  <path
     style="fill:#828282;fill-opacity:1;fill-rule:evenodd;stroke:#000000;stroke-width:5.34506;stroke-linejoin:round;stroke-opacity:0"
     d="m 261.28446,423.66938 -3.91772,-5.24518 2.63504,-2.57305 c 2.0879,-2.03878 3.00005,-2.48144 4.39292,-2.13185 1.63508,0.41038 3.51851,-0.11518 12.41936,-3.46557 3.7081,-1.39577 6.72964,-0.5558 12.05029,3.34992 4.32925,3.17796 9.0686,5.37538 11.63778,5.39589 1.88015,0.015 1.94455,0.14241 1.94455,3.84679 0,6.01883 -0.0524,6.06824 -6.43962,6.06824 -4.95351,0 -5.5812,-0.14672 -5.5812,-1.30462 0,-1.91164 -2.26882,-3.64513 -4.77081,-3.64513 -3.16244,0 -4.34095,0.62142 -5.52655,2.91412 -1.05125,2.0329 -1.06197,2.03563 -7.98949,2.03563 h -6.93683 z"
     id="path2417" />
  <path
     style="fill:#828282;fill-opacity:1;fill-rule:evenodd;stroke:#000000;stroke-width:5.34506;stroke-linejoin:round;stroke-opacity:0"
     d="m 320.87349,409.02019 c -8.07327,-0.66238 -22.39135,-2.89747 -27.97275,-4.36662 l -3.53554,-0.93063 -0.20134,-6.76302 -0.20133,-6.76301 2.67621,-1.06383 c 1.47191,-0.5851 5.04459,-1.29894 7.93927,-1.5863 l 5.26306,-0.52247 -2.08108,-1.11089 c -1.27639,-0.68134 -4.54183,-1.22582 -8.44504,-1.40812 l -6.36396,-0.29723 -1.20094,-3.63292 c -1.08722,-3.28893 -1.09586,-3.69988 -0.0913,-4.34004 0.61031,-0.3889 5.44641,-3.5067 10.74688,-6.92842 12.82077,-8.27646 17.72402,-10.59978 23.13847,-10.96379 8.20393,-0.55154 10.81949,2.64447 13.7747,16.83155 2.40283,11.53527 1.83865,26.76068 -1.21185,32.70369 -1.111,2.16446 -0.48471,2.10599 -12.23347,1.14205 z"
     id="path2419" />
  <path
     style="fill:#828282;fill-opacity:1;fill-rule:evenodd;stroke:#000000;stroke-width:3.77953;stroke-linejoin:round;stroke-opacity:0"
     d="m 245.19223,429.56402 c 1.17602,-0.10562 2.97602,-0.10414 4,0.003 1.02399,0.10744 0.0618,0.19386 -2.13821,0.19204 -2.2,-0.002 -3.0378,-0.0897 -1.86179,-0.19534 z"
     id="path2425" />
  <path
     style="fill:#828282;fill-opacity:1;fill-rule:evenodd;stroke:#000000;stroke-width:1.33626;stroke-linejoin:round;stroke-opacity:0"
     d="m 243.99139,429.14951 c 0.23119,-0.16505 1.36084,-0.91328 2.51034,-1.66274 l 2.08999,-1.36265 1.15778,1.5774 c 0.63678,0.86757 1.15778,1.61998 1.15778,1.67201 0,0.052 -1.65065,0.0904 -3.66812,0.0853 -3.49878,-0.009 -3.64871,-0.0231 -3.24777,-0.30935 z"
     id="path2427" />
  <path
     style="fill:#828282;fill-opacity:1;fill-rule:evenodd;stroke:#000000;stroke-width:1.33626;stroke-linejoin:round;stroke-opacity:0"
     d="m 309.96114,428.27489 c 0.0147,-1.67915 0.43538,-8.50402 0.52997,-8.59784 0.14624,-0.14507 2.72528,-1.12275 3.70223,-1.40348 2.89716,-0.83249 6.59367,-1.05037 9.47859,-0.55867 4.63202,0.78947 9.34181,3.28696 13.12105,6.95778 1.45362,1.41192 3.91686,4.34135 3.91686,4.65816 0,0.0755 -6.92081,0.1373 -15.37957,0.1373 H 309.9507 Z"
     id="path2429" />
  <path
     style="fill:#828282;fill-opacity:1;fill-rule:evenodd;stroke:#000000;stroke-width:2.673;stroke-linejoin:round;stroke-opacity:0;stroke-miterlimit:4;stroke-dasharray:none;stroke-linecap:round"
     d="m 349.59828,429.60221 c 1.02283,-2.45199 1.02173,-2.42437 0.15217,-3.83135 -0.46429,-0.75124 -2.09626,-2.7222 -3.62662,-4.37993 -2.70269,-2.92765 -4.82965,-6.02905 -4.8364,-7.05217 -0.002,-0.27642 0.39566,-1.49986 0.88329,-2.71875 2.73867,-6.8456 3.8661,-14.25246 3.86874,-25.41648 0.003,-13.79677 -2.05004,-24.45296 -6.25919,-32.48372 -2.03213,-3.87717 -5.69421,-7.59801 -8.51777,-8.65444 -2.42426,-0.90703 -6.02464,-1.00423 -8.57214,-0.23142 -0.95456,0.28958 -1.80655,0.52823 -1.89331,0.53033 -0.53259,0.0129 3.0104,-3.11542 7.48219,-6.60652 2.86172,-2.23413 6.2515,-5.17339 7.53285,-6.53169 2.21587,-2.34894 2.36763,-2.44438 3.10538,-1.9529 1.47875,0.98511 8.60095,7.63193 18.21646,17.00057 6.33189,6.16932 11.45202,10.80695 14.85373,13.45397 9.15527,7.1241 12.56623,11.37354 13.0187,16.21891 0.51652,5.53128 -4.93265,30.50259 -10.87313,49.82716 l -1.05968,3.44715 h -11.86668 c -11.16422,0 -11.8514,-0.0366 -11.60859,-0.61872 z"
     id="path2431" />
  <path
     style="fill:#828282;fill-rule:evenodd;stroke:none;stroke-width:1;stroke-linecap:round;stroke-linejoin:round;stroke-opacity:1;stroke-miterlimit:4;stroke-dasharray:none"
     d="m 170.06819,354.94961 c -0.58336,-0.11538 -3.92444,-0.58041 -7.42462,-1.03339 -3.50018,-0.453 -9.99832,-1.77242 -14.4403,-2.93205 -19.89768,-5.19455 -26.75793,-12.02394 -39.32469,-39.14779 -5.57368,-12.03012 -11.642388,-32.72999 -11.642388,-39.71121 0,-3.6847 0.190558,-4.08364 4.259608,-8.91766 4.7978,-5.69979 6.21006,-9.16291 5.17752,-12.69621 -0.6242,-2.13599 -0.89716,-2.31042 -3.53856,-2.26119 -2.15432,0.0402 -4.06832,0.84784 -7.739129,3.2658 -7.42775,4.89267 -7.767983,5.00911 -14.452713,4.94604 -5.684927,-0.0537 -6.43728,-0.23831 -10.376426,-2.54698 -2.335897,-1.36903 -6.033409,-4.41859 -8.216694,-6.7768 -3.883376,-4.1945 -11.042233,-16.16739 -11.064379,-18.50469 -0.0061,-0.64818 -0.299613,-1.28457 -0.652158,-1.41421 -0.352546,-0.12964 -1.346868,-3.69746 -2.209605,-7.9285 -1.869389,-9.16786 -1.56278,-14.59976 1.220198,-21.61704 2.28276,-5.75598 4.827775,-9.04762 10.179214,-13.16546 6.489637,-4.99366 9.867187,-6.24917 16.907028,-6.28472 5.205192,-0.0263 6.557362,0.23823 10.093068,1.97442 5.355405,2.62974 8.355713,7.19599 12.156511,18.50133 l 2.852715,8.48528 7.07106,-0.076 c 7.76087,-0.0834 12.88935,-1.65851 15.92654,-4.89145 1.90506,-2.02784 1.77822,-3.27375 -2.01386,-19.78128 -2.48865,-10.83348 -2.59782,-11.85397 -2.57189,-24.04163 0.0255,-11.96324 0.18573,-13.47137 2.66776,-25.10229 4.49166,-21.04813 4.89933,-31.75872 1.74369,-45.811581 -0.96275,-4.287411 -0.57179,-5.788168 3.14254,-12.062811 3.25145,-5.492703 16.4781,-19.012335 25.2994,-25.859793 9.68395,-7.517089 14.579,-10.766274 27.93071,-18.539524 5.89145,-3.429951 16.83661,-8.429869 23.33453,-10.659569 l 7.77817,-2.669009 16.61701,0.05367 c 16.56758,0.05351 21.66826,0.540191 32.52691,3.103531 14.32771,3.382261 26.57386,7.923356 44.90128,16.650198 2.41546,1.150151 7.03626,5.110212 14.58562,12.499966 9.28725,9.090913 19.00195,20.005479 19.00195,21.348898 0,0.195178 0.7955,1.213222 1.76777,2.262321 2.97156,3.206377 2.41497,3.822265 -3.45434,3.822265 -6.5256,0 -11.58074,1.590395 -15.37313,4.836539 -3.65148,3.125537 -4.86061,5.961102 -4.86061,11.398816 v 4.259965 l 4.77297,-2.545846 c 4.67301,-2.492516 4.90626,-2.538959 11.13693,-2.217388 5.07847,0.262111 7.46504,0.788332 11.81494,2.605109 4.7701,1.992266 6.1833,3.048549 11.31371,8.456303 8.06546,8.50145 9.96784,13.3901 12.13704,31.18926 1.46053,11.98425 2.13674,46.71159 1.23231,63.28606 -1.68127,30.81062 -10.61053,62.94838 -24.4599,88.03479 -3.3115,5.99838 -10.45731,17.24449 -16.62399,26.16295 -3.79505,5.48852 -12.14563,13.44611 -18.39508,17.52939 -11.45797,7.48642 -34.03442,16.71498 -45.25483,18.49878 -6.05297,0.96229 -22.68477,0.94419 -27.95695,-0.0304 -4.01729,-0.74264 -16.52274,-4.96486 -18.71209,-6.31777 -0.58337,-0.36049 -3.20054,-1.74288 -5.81594,-3.07199 -8.30321,-4.21958 -18.76839,-12.50518 -28.8323,-22.82743 -5.25026,-5.38504 -10.50053,-11.10985 -11.66726,-12.7218 -1.16672,-1.61195 -4.3487,-5.80879 -7.07107,-9.3263 -2.72236,-3.51751 -6.37408,-8.32395 -8.11493,-10.68099 -1.74085,-2.35702 -3.41139,-4.2855 -3.71231,-4.2855 -0.8715,0 -0.63732,3.59323 0.53183,8.15994 1.58571,6.19385 5.91663,14.75666 10.71501,21.18499 8.14564,10.91264 27.63876,30.60652 36.2893,36.66306 l 3.18198,2.22781 -7.77818,0.42399 c -8.62526,0.47016 -9.65399,0.77319 -15.09707,4.44702 -3.66784,2.47563 -6.85124,3.08329 -11.41943,2.17978 z m 122.32947,-43.83493 c 9.00834,-1.4343 15.01902,-4.40251 18.28816,-9.03109 1.31642,-1.86385 2.27032,-3.51201 2.11975,-3.66257 -0.15056,-0.15056 -10.61105,-0.61991 -23.24552,-1.04298 -25.9175,-0.86788 -32.77075,-1.84839 -41.26615,-5.90405 -7.06257,-3.37162 -12.03884,-7.5729 -15.73198,-13.28191 -2.99126,-4.62401 -3.31147,-4.89302 -5.8243,-4.89302 -1.46246,0 -3.2766,0.45159 -4.03142,1.00352 -2.03461,1.48775 -0.94328,3.65145 6.81471,13.51105 12.41125,15.77339 19.82601,21.82088 28.93562,23.59993 5.42802,1.06005 26.57576,0.87384 33.94113,-0.29888 z m 10.6008,-29.50712 c -0.006,-2.65123 -1.35008,-14.84984 -1.67067,-15.17042 -0.11818,-0.11818 -8.30112,-0.51382 -18.18431,-0.8792 -19.67533,-0.7274 -30.00026,-1.97288 -39.40253,-4.75309 -9.42201,-2.78604 -11.46589,-3.27931 -11.87845,-2.86675 -0.57197,0.57195 1.75891,4.78353 4.19667,7.58278 7.38125,8.47585 20.25581,14.35962 37.95371,17.34516 2.91682,0.49204 10.63312,0.92725 17.14734,0.96713 l 11.84404,0.0725 -0.006,-2.2981 z m 18.96622,-0.93594 c 11.16291,-3.74727 19.16125,-10.4888 27.59552,-23.25936 5.35208,-8.10371 6.28102,-10.74737 3.47186,-9.88048 -1.29984,0.40112 -23.17464,10.79521 -27.5545,13.09288 -1.05877,0.55542 -16.90032,4.89622 -17.86856,4.89622 -0.19915,0 -0.3621,3.81838 -0.3621,8.48529 v 8.48528 h 4.64829 c 3.11796,0 6.43311,-0.59914 10.06949,-1.81983 z m -24.77646,-24.04741 c 8.12773,-1.46548 16.66171,-4.59573 27.02924,-9.91427 13.49071,-6.92073 17.83853,-9.9832 18.98433,-13.37197 2.69022,-7.95645 4.40358,-15.46181 3.97507,-17.41278 -0.29012,-1.32092 -3.64266,-5.54558 -9.06925,-11.4285 -14.3521,-15.55901 -24.01125,-27.38947 -30.707,-37.60975 -3.25256,-4.96465 -9.73477,-17.80453 -10.79673,-21.38604 -1.06824,-3.60263 -2.80389,-5.33351 -5.03179,-5.01796 -1.59435,0.22582 -1.64696,0.44565 -1.579,6.59756 0.16295,14.74981 6.99706,28.62454 25.11727,50.99351 4.68914,5.78863 9.93483,12.27487 11.65709,14.41387 6.20822,7.71046 7.26403,12.77748 3.62609,17.40237 -1.6651,2.11683 -23.14623,12.78962 -29.5106,14.66219 -9.17266,2.69884 -20.53088,3.19785 -23.96549,1.0529 -0.7785,-0.48618 -2.0277,-2.97746 -2.93107,-5.84544 -3.29519,-10.46139 -4.04464,-11.21482 -6.67523,-6.71064 -1.82484,3.12457 -1.89508,11.45763 -0.14011,16.62323 1.53371,4.51432 4.75185,7.91325 7.76898,8.20542 4.59064,0.44454 16.57499,-0.23078 22.2482,-1.2537 z M 74.166834,232.90558 c 0.243068,-1.21534 0.451766,-4.63596 0.463774,-7.60139 0.03032,-7.48755 1.172566,-15.55749 2.485734,-17.56164 0.606521,-0.92567 1.889392,-2.04144 2.850826,-2.4795 1.548995,-0.70577 2.023317,-0.52968 4.165186,1.5463 1.329419,1.28852 3.469294,4.4082 4.755278,6.93261 2.421925,4.75429 7.172491,10.73245 7.937091,9.98812 0.240148,-0.23379 0.151166,-4.25676 -0.197736,-8.93993 -0.54454,-7.30915 -0.918044,-9.03609 -2.637678,-12.19562 -2.509368,-4.61054 -6.221297,-8.47001 -10.64958,-11.0729 -2.953108,-1.73579 -4.169023,-2.01472 -8.782593,-2.01472 -4.647351,0 -5.740052,0.25485 -8.269418,1.92871 -3.455632,2.28682 -6.288441,6.81241 -7.149586,11.42189 -0.341871,1.82995 -0.421461,3.23396 -0.176868,3.12001 0.244594,-0.11393 2.285526,-1.45287 4.535406,-2.9754 3.057338,-2.06896 4.29392,-2.56502 4.895211,-1.96373 0.601291,0.6013 0.590326,1.27463 -0.04341,2.66552 -1.92585,4.22678 -1.628316,16.77513 0.577133,24.34032 0.861829,2.95626 3.288539,7.07106 4.170173,7.07106 0.346012,0 0.827986,-0.99437 1.071054,-2.20971 z m 164.969876,-45.9032 c 3.48107,-0.46367 7.17992,-1.53368 9.97927,-2.88682 5.74069,-2.7749 7.80481,-5.73533 8.36057,-11.99103 l 0.40315,-4.53793 -6.14907,-6.93818 c -5.50936,-6.21635 -6.73103,-8.1474 -11.74283,-18.56155 -3.07657,-6.39285 -5.9012,-11.62338 -6.27696,-11.62338 -1.29505,0 -1.59306,3.64888 -0.74033,9.06499 0.972,6.17371 4.41368,15.45804 8.88066,23.95664 2.26656,4.31222 2.83337,5.97573 2.21185,6.49155 -1.76491,1.46475 -10.28115,2.40396 -14.47342,1.59621 -2.20745,-0.42533 -6.63589,-0.98491 -9.84098,-1.24351 l -5.82745,-0.4702 -1.06684,2.55331 c -1.4414,3.44976 -1.34753,4.80151 0.52655,7.58246 2.15873,3.20334 5.45898,4.99095 11.81061,6.39732 6.69872,1.48323 7.21931,1.50601 13.94522,0.61012 z m 117.02518,-10.38216 c 7.09947,-3.51793 11.18909,-7.17676 11.18909,-10.01047 0,-1.08319 -0.23865,-2.20702 -0.53033,-2.49742 -0.29169,-0.29039 -4.34871,-8.03473 -9.01562,-17.20964 -4.6669,-9.17491 -8.93089,-16.82866 -9.47553,-17.00835 -0.82256,-0.27139 -0.92451,0.91655 -0.60202,7.01551 0.36976,6.99288 2.01743,13.61384 5.56587,22.3657 1.4261,3.51733 0.28482,4.08275 -11.04466,5.4718 -5.44473,0.66755 -10.45635,1.51112 -11.13694,1.87459 -0.89672,0.4789 -1.23743,1.53525 -1.23743,3.83657 0,2.82987 0.35318,3.5289 3.24316,6.41887 l 3.24315,3.24315 6.93042,-0.27836 c 6.43604,-0.2585 7.35418,-0.48834 12.87084,-3.22195 z m -181.35458,-48.8515 c 0.80824,-1.09321 2.43226,-3.87744 3.60892,-6.18718 3.00413,-5.897 8.41965,-11.63598 15.30045,-16.21431 l 5.88953,-3.91875 10.86361,-0.51851 10.86361,-0.51851 0.63437,-2.567043 c 0.51422,-2.080831 0.33772,-3.179831 -0.93185,-5.802412 -1.3013,-2.688137 -2.29481,-3.599449 -5.87383,-5.38791 -6.82171,-3.408847 -13.89319,-2.711765 -23.52718,2.319229 -6.33437,3.307888 -16.38112,13.595906 -19.61759,20.088676 -4.40752,8.84207 -5.12536,16.10398 -1.90972,19.31961 1.87232,1.87232 2.96792,1.72945 4.69968,-0.61289 z"
     id="path903" />
  <path
     style="fill:#828282;fill-rule:evenodd;stroke:none;stroke-width:0.707107;stroke-linecap:round;stroke-linejoin:round;stroke-miterlimit:4;stroke-dasharray:none;stroke-opacity:1"
     d="m 110.70073,188.97658 c -2.25674,-11.57563 -11.493573,-21.12927 -24.022703,-24.84666 -6.259548,-1.8572 -15.49661,-1.50494 -22.476698,0.85717 l -5.811253,1.96656 -0.446156,-2.97517 c -0.245385,-1.63635 -0.304325,-9.92619 -0.130976,-18.42186 0.325522,-15.95353 1.249544,-21.9124 4.259293,-27.4675 0.632132,-1.16672 1.457922,-2.78921 1.835088,-3.60553 0.9226,-1.99681 6.638864,-7.78187 11.383338,-11.52033 8.018408,-6.318188 23.979388,-12.956497 33.496727,-13.931577 l 4.55661,-0.466838 0.7836,3.653795 c 0.43097,2.009587 0.98022,7.697956 1.22055,12.64082 0.38425,7.90304 0.15378,10.94867 -1.91079,25.25048 -3.01456,20.88266 -3.28606,34.99395 -0.84481,43.9091 0.86228,3.14894 1.92324,8.01637 2.3577,10.81653 0.68004,4.38296 0.63182,5.33249 -0.34664,6.82581 -1.88611,2.87857 -2.96264,2.13803 -3.90288,-2.6848 z"
     id="path905" />
  <path
     style="fill:#828282;fill-rule:evenodd;stroke:none;stroke-width:0.707107;stroke-linecap:round;stroke-linejoin:round;stroke-miterlimit:4;stroke-dasharray:none;stroke-opacity:1"
     d="m 81.679843,81.744182 c 0,-1.099795 4.767996,-7.778427 8.970416,-12.565047 5.153994,-5.87048 15.058501,-14.193197 23.202941,-19.49735 11.15124,-7.262357 34.23464,-17.804008 42.24216,-19.291013 2.09059,-0.388222 2.73633,-0.250892 3.08431,0.655932 0.57282,1.492735 -0.7997,3.092322 -3.68932,4.299683 -2.44535,1.021735 -11.71733,8.307019 -17.49595,13.747126 -1.88978,1.779075 -6.09989,7.298911 -9.3558,12.266303 -3.25591,4.967391 -7.40129,10.615406 -9.21195,12.551145 l -3.2921,3.519524 h -8.75514 c -8.076281,0 -9.348757,0.191901 -16.410698,2.474874 -8.110172,2.621843 -9.288869,2.855178 -9.288869,1.838823 z"
     id="path907" />
  <path
     style="fill:#828282;fill-rule:evenodd;stroke:none;stroke-width:0.707107;stroke-linecap:round;stroke-linejoin:round;stroke-miterlimit:4;stroke-dasharray:none;stroke-opacity:1"
     d="m 28.256663,427.27156 c -0.542835,-1.77898 -8.754189,-22.76937 -10.493276,-26.82359 l -1.117508,-2.60517 6.530809,-5.15382 c 24.975946,-19.70989 59.647561,-41.2961 76.520016,-47.64062 l 4.935386,-1.85585 2.84279,3.10854 c 21.90731,23.95526 21.97153,24.0051 48.59714,37.71668 9.44798,4.8655 17.53049,9.22971 17.96114,9.69825 0.43064,0.46854 1.342,3.55657 2.02523,6.8623 0.68324,3.30572 2.63783,10.90007 4.34354,16.87632 1.70571,5.97626 3.10129,10.98788 3.10129,11.13693 0,0.14906 -34.82125,0.27102 -77.38054,0.27102 H 28.742136 Z"
     id="path909" />
  <path
     style="fill:#828282;fill-rule:evenodd;stroke:none;stroke-width:0.707107;stroke-linecap:round;stroke-linejoin:round;stroke-miterlimit:4;stroke-dasharray:none;stroke-opacity:1"
     d="m 162.3561,375.44422 c -8.94888,-3.01882 -16.40279,-6.84652 -20.00426,-10.27253 -2.78428,-2.64862 -3.04884,-3.23765 -2.11467,-4.70826 0.42493,-0.66894 1.41391,-0.54327 4.27251,0.54291 3.26769,1.24162 8.4699,2.01659 26.08884,3.88644 5.05622,0.5366 4.91822,0.22353 3.56838,8.09521 -0.79381,4.62914 -0.97212,4.96205 -2.65165,4.95072 -0.99034,-0.007 -5.11196,-1.1292 -9.15915,-2.49449 z"
     id="path911" />
  <path
     style="fill:#828282;fill-rule:evenodd;stroke:none;stroke-width:0.707107;stroke-linecap:round;stroke-linejoin:round;stroke-miterlimit:4;stroke-dasharray:none;stroke-opacity:1"
     d="m 196.96297,436.68691 c -1.61397,-3.01573 -9.1677,-24.99001 -10.38043,-30.19733 -0.98354,-4.22324 -1.29601,-8.44415 -1.30132,-17.57857 -0.006,-10.50636 0.19346,-12.65894 1.58407,-17.0859 2.90738,-9.25556 6.51765,-10.45367 20.02659,-6.64606 9.93084,2.79909 17.6425,5.99822 31.66823,13.13733 6.4816,3.29914 12.43535,5.99844 13.23056,5.99844 0.7952,0 2.00502,0.4089 2.68849,0.90866 1.17724,0.86082 1.16944,0.97493 -0.14808,2.16727 -0.76491,0.69223 -4.92257,2.23311 -9.23925,3.42418 -4.31667,1.19107 -7.8485,2.42174 -7.8485,2.73483 0,0.66819 1.00488,0.98409 6.71752,2.11176 2.33345,0.46062 5.87323,1.44504 7.86618,2.18761 3.58372,1.33528 3.62879,1.38964 4.10053,4.94575 0.33023,2.4894 0.19438,3.99285 -0.44157,4.88671 -1.0007,1.40654 -17.498,14.67792 -22.66396,18.2322 -12.2048,8.39712 -33.67808,14.84833 -35.85906,10.77312 z"
     id="path913" />
  <path
     style="fill:#828282;fill-rule:evenodd;stroke:none;stroke-width:0.707107;stroke-linecap:round;stroke-linejoin:round;stroke-miterlimit:4;stroke-dasharray:none;stroke-opacity:1"
     d="m 266.07791,401.524 c -1.60417,-0.44091 -2.66341,-4.22793 -3.16288,-11.30803 l -0.40677,-5.7661 2.18166,-1.12819 c 1.19992,-0.6205 3.62434,-1.12818 5.38761,-1.12818 5.98666,0 9.82059,5.83127 8.09311,12.30933 -0.88822,3.3308 -4.13797,6.77892 -6.40146,6.79221 -0.90496,0.005 -2.28178,0.13429 -3.0596,0.28661 -0.77782,0.15233 -1.96207,0.12639 -2.63167,-0.0577 z"
     id="path915" />
  <path
     style="fill:#828282;fill-rule:evenodd;stroke:none;stroke-width:0.707107;stroke-linecap:round;stroke-linejoin:round;stroke-miterlimit:4;stroke-dasharray:none;stroke-opacity:1"
     d="m 261.79642,423.67757 -4.00086,-5.31563 2.47641,-2.17432 c 1.69658,-1.48961 3.21238,-2.17432 4.81352,-2.17432 1.2854,0 5.10251,-0.95819 8.48245,-2.12932 7.27698,-2.52143 8.1313,-2.40628 14.94063,2.01367 2.72236,1.7671 6.85894,3.88087 9.19239,4.69729 l 4.24264,1.48438 0.18421,3.15418 c 0.27223,4.66119 -0.38495,5.24492 -5.9234,5.26138 -3.40894,0.0101 -4.83921,-0.26003 -5.07265,-0.95816 -0.7668,-2.29328 -3.00935,-3.62392 -6.10747,-3.62392 -2.69188,0 -3.38277,0.32213 -4.92874,2.2981 -1.75299,2.24056 -1.95447,2.30415 -8.04813,2.54019 l -6.25014,0.2421 z"
     id="path917" />
  <path
     style="fill:#828282;fill-rule:evenodd;stroke:none;stroke-width:0.707107;stroke-linecap:round;stroke-linejoin:round;stroke-miterlimit:4;stroke-dasharray:none;stroke-opacity:1"
     d="m 310.34049,426.65284 c 0.24307,-1.21534 0.44194,-3.25895 0.44194,-4.54136 0,-2.06555 0.30262,-2.43268 2.65165,-3.21697 7.56453,-2.52563 16.9048,0.0841 23.20923,6.48477 l 3.43089,3.48327 h -15.08782 -15.08783 z"
     id="path919" />
  <path
     style="fill:#828282;fill-rule:evenodd;stroke:none;stroke-width:0.707107;stroke-linecap:round;stroke-linejoin:round;stroke-miterlimit:4;stroke-dasharray:none;stroke-opacity:1"
     d="m 350.37062,427.62511 c -0.007,-1.32158 -1.25158,-3.4053 -3.88595,-6.50419 -2.13188,-2.5078 -4.0603,-5.13986 -4.28537,-5.84902 -0.22508,-0.70915 0.23458,-3.27118 1.02146,-5.69339 2.27784,-7.01172 2.91701,-12.08385 2.91701,-23.14763 0,-27.18265 -7.92191,-43.47053 -20.55244,-42.2569 -1.91905,0.1844 -3.48919,0.26982 -3.48919,0.18982 0,-0.08 1.89108,-1.63116 4.2024,-3.44704 2.31132,-1.81587 5.98016,-4.92636 8.15297,-6.91219 3.93265,-3.59422 3.95764,-3.60458 5.50848,-2.28279 0.85685,0.73029 6.9726,6.46862 13.59056,12.75185 6.61796,6.28322 14.41914,13.39897 17.33596,15.81276 14.74529,12.20237 15.2739,13.63434 11.66586,31.60257 -1.83952,9.16088 -5.60264,24.19183 -8.23872,32.90772 l -1.44357,4.77297 h -11.24483 -11.24484 l -0.01,-1.94454 z"
     id="path921" />
  <path
     style="fill:#828282;fill-rule:evenodd;stroke:none;stroke-width:0.707107;stroke-linecap:round;stroke-linejoin:round;stroke-miterlimit:4;stroke-dasharray:none;stroke-opacity:1"
     d="m 314.67152,407.998 c -8.7209,-1.15097 -18.91986,-2.93034 -22.45064,-3.91687 l -2.65165,-0.7409 v -6.57235 -6.57235 l 2.73702,-0.82004 c 1.50537,-0.45101 4.2896,-0.99922 6.18719,-1.21823 1.89759,-0.21901 4.24565,-0.56413 5.21793,-0.76693 l 1.76776,-0.36872 -2.09878,-1.10324 c -1.15432,-0.60678 -4.88193,-1.30004 -8.28356,-1.54059 -3.40164,-0.24054 -6.48464,-0.75086 -6.85112,-1.13404 -0.36649,-0.38318 -0.99023,-1.89634 -1.38609,-3.36259 l -0.71976,-2.66591 5.07346,-3.40045 c 9.2343,-6.18922 19.51233,-12.24166 23.10926,-13.60839 4.23367,-1.60867 9.9026,-1.74543 12.68605,-0.30605 2.54893,1.3181 4.50502,5.35734 6.51556,13.45432 2.16997,8.73908 2.27499,25.57091 0.19632,31.46625 l -1.37128,3.88908 -5.3033,0.11062 c -2.91682,0.0608 -8.48528,-0.30934 -12.37437,-0.82262 z"
     id="path923" />
  <path
     style="fill:#828282;fill-rule:evenodd;stroke:#000000;stroke-width:0.707107;stroke-linecap:round;stroke-linejoin:round;stroke-miterlimit:4;stroke-dasharray:none;stroke-opacity:1"
     d=""
     id="path925" />
  <path
     style="fill:#828282;fill-rule:evenodd;stroke:none;stroke-width:0.707107;stroke-linecap:round;stroke-linejoin:round;stroke-miterlimit:4;stroke-dasharray:none;stroke-opacity:1"
     d="m 259.90092,371.48895 c -4.30226,-0.71322 -9.83223,-3.04955 -13.93406,-5.88693 l -2.71312,-1.87676 2.82843,0.57206 c 6.51911,1.31852 17.95217,0.51994 30.70627,-2.14478 6.77683,-1.41588 12.40832,-2.48752 12.51442,-2.38142 0.30561,0.30561 -8.04661,6.95519 -12.39595,9.86898 -3.61385,2.42106 -4.35081,2.64247 -8.55088,2.56899 -2.52791,-0.0442 -6.33271,-0.36829 -8.45511,-0.72014 z"
     id="path927" />
  <path
     style="fill:#828282;fill-rule:evenodd;stroke:#000000;stroke-width:0.707107;stroke-linecap:round;stroke-linejoin:round;stroke-miterlimit:4;stroke-dasharray:none;stroke-opacity:1"
     d=""
     id="path929" />
  <path
     style="fill:#828282;fill-rule:evenodd;stroke:#000000;stroke-width:0.707107;stroke-linecap:round;stroke-linejoin:round;stroke-miterlimit:4;stroke-dasharray:none;stroke-opacity:1"
     d=""
     id="path931" />
  <path
     style="fill:#828282;fill-rule:evenodd;stroke:#000000;stroke-width:0.707107;stroke-linecap:round;stroke-linejoin:round;stroke-miterlimit:4;stroke-dasharray:none;stroke-opacity:1"
     d=""
     id="path933" />
  <path
     style="fill:#828282;fill-rule:evenodd;stroke:none;stroke-width:0.25;stroke-linecap:round;stroke-linejoin:round;stroke-miterlimit:4;stroke-dasharray:none;stroke-opacity:1"
     d="m 244.43765,429.06775 c 0.13062,-0.11875 1.0987,-0.78998 2.15129,-1.49162 l 1.91379,-1.27571 1.02371,1.3559 c 0.56304,0.74574 1.02371,1.41697 1.02371,1.49162 0,0.0747 -1.42875,0.13572 -3.175,0.13572 -1.79918,0 -3.07209,-0.0936 -2.9375,-0.21591 z"
     id="path935" />
</svg>
