<?xml version="1.0" encoding="UTF-8" standalone="no"?>
<svg
   xmlns:dc="http://purl.org/dc/elements/1.1/"
   xmlns:cc="http://creativecommons.org/ns#"
   xmlns:rdf="http://www.w3.org/1999/02/22-rdf-syntax-ns#"
   xmlns:svg="http://www.w3.org/2000/svg"
   xmlns="http://www.w3.org/2000/svg"
   xmlns:sodipodi="http://sodipodi.sourceforge.net/DTD/sodipodi-0.dtd"
   xmlns:inkscape="http://www.inkscape.org/namespaces/inkscape"
   width="24"
   height="24"
   viewBox="0 0 24 24"
   version="1.1"
   id="svg1134"
   sodipodi:docname="iconmonstr-cube-18.svg"
   inkscape:version="1.0.1 (unknown)">
  <metadata
     id="metadata1140">
    <rdf:RDF>
      <cc:Work
         rdf:about="">
        <dc:format>image/svg+xml</dc:format>
        <dc:type
           rdf:resource="http://purl.org/dc/dcmitype/StillImage" />
      </cc:Work>
    </rdf:RDF>
  </metadata>
  <defs
     id="defs1138" />
  <sodipodi:namedview
     pagecolor="#ffffff"
     bordercolor="#666666"
     borderopacity="1"
     objecttolerance="10"
     gridtolerance="10"
     guidetolerance="10"
     inkscape:pageopacity="0"
     inkscape:pageshadow="2"
     inkscape:window-width="1680"
     inkscape:window-height="1017"
     id="namedview1136"
     showgrid="false"
     inkscape:zoom="26.875"
     inkscape:cx="5.2093023"
     inkscape:cy="12"
     inkscape:window-x="0"
     inkscape:window-y="33"
     inkscape:window-maximized="0"
     inkscape:current-layer="svg1134" />
  <path
     d="M18 10.031v-6.423l-6.036-3.608-5.964 3.569v6.499l-6 3.224v7.216l6.136 3.492 5.864-3.393 5.864 3.393 6.136-3.492v-7.177l-6-3.3zm-1.143.036l-4.321 2.384v-4.956l4.321-2.539v5.111zm-4.895-8.71l4.272 2.596-4.268 2.509-4.176-2.554 4.172-2.551zm-10.172 12.274l4.778-2.53 4.237 2.417-4.668 2.667-4.347-2.554zm4.917 3.587l4.722-2.697v5.056l-4.722 2.757v-5.116zm6.512-3.746l4.247-2.39 4.769 2.594-4.367 2.509-4.649-2.713zm9.638 6.323l-4.421 2.539v-5.116l4.421-2.538v5.115z"
     id="path1132"
     style="fill:#828282;fill-opacity:1" />
</svg>
