<?xml version="1.0" encoding="UTF-8" standalone="no"?>
<svg
   xmlns:dc="http://purl.org/dc/elements/1.1/"
   xmlns:cc="http://creativecommons.org/ns#"
   xmlns:rdf="http://www.w3.org/1999/02/22-rdf-syntax-ns#"
   xmlns:svg="http://www.w3.org/2000/svg"
   xmlns="http://www.w3.org/2000/svg"
   xmlns:sodipodi="http://sodipodi.sourceforge.net/DTD/sodipodi-0.dtd"
   xmlns:inkscape="http://www.inkscape.org/namespaces/inkscape"
   version="1.1"
   id="Layer_1"
   x="0px"
   y="0px"
   viewBox="0 0 134.21173 72.064527"
   enable-background="new 0 0 196.6 72"
   xml:space="preserve"
   inkscape:version="1.0.1 (unknown)"
   sodipodi:docname="Nextcloud_Logo.svg"
   width="134.21172"
   height="72.064529"
   inkscape:export-filename="nextcloud-logo-white-transparent.png"
   inkscape:export-xdpi="300.09631"
   inkscape:export-ydpi="300.09631"><metadata
     id="metadata20"><rdf:RDF><cc:Work
         rdf:about=""><dc:format>image/svg+xml</dc:format><dc:type
           rdf:resource="http://purl.org/dc/dcmitype/StillImage" /><dc:title></dc:title></cc:Work></rdf:RDF></metadata><defs
     id="defs18" /><sodipodi:namedview
     pagecolor="#ffffff"
     bordercolor="#666666"
     borderopacity="1"
     objecttolerance="10"
     gridtolerance="10"
     guidetolerance="10"
     inkscape:pageopacity="0"
     inkscape:pageshadow="2"
     inkscape:window-width="1680"
     inkscape:window-height="1017"
     id="namedview16"
     showgrid="false"
     inkscape:zoom="4"
     inkscape:cx="83.155952"
     inkscape:cy="52.781171"
     inkscape:current-layer="Layer_1"
     fit-margin-top="10"
     fit-margin-left="10"
     fit-margin-right="10"
     fit-margin-bottom="10"
     inkscape:window-x="0"
     inkscape:window-y="33"
     inkscape:window-maximized="1"
     units="px"
     inkscape:snap-bbox="true"
     inkscape:bbox-paths="true"
     inkscape:bbox-nodes="true"
     inkscape:snap-bbox-edge-midpoints="true"
     inkscape:snap-bbox-midpoints="true"
     inkscape:snap-page="true"
     inkscape:document-rotation="0" /><path
     style="color:#000000;font-style:normal;font-variant:normal;font-weight:normal;font-stretch:normal;font-size:medium;line-height:normal;font-family:sans-serif;text-indent:0;text-align:start;text-decoration:none;text-decoration-line:none;text-decoration-style:solid;text-decoration-color:#000000;letter-spacing:normal;word-spacing:normal;text-transform:none;writing-mode:lr-tb;direction:ltr;baseline-shift:baseline;text-anchor:start;white-space:normal;clip-rule:nonzero;display:inline;overflow:visible;visibility:visible;opacity:1;isolation:auto;mix-blend-mode:normal;color-interpolation:sRGB;color-interpolation-filters:linearRGB;solid-color:#000000;solid-opacity:1;fill:#0082c9;fill-opacity:1;fill-rule:nonzero;stroke:none;stroke-width:5.5659;stroke-linecap:butt;stroke-linejoin:miter;stroke-miterlimit:10;stroke-dasharray:none;stroke-dashoffset:0;stroke-opacity:1;color-rendering:auto;image-rendering:auto;shape-rendering:auto;text-rendering:auto;enable-background:accumulate"
     d="m 67.167479,10.144209 c -11.80525,0 -21.81118,8.00318 -24.91235,18.84659 -2.69524,-5.75151 -8.53592,-9.78093 -15.26337,-9.78093 -9.25183,0 -16.85708,7.60525 -16.85708,16.85708 0,9.25182 7.60525,16.86054 16.85708,16.86054 6.72745,0 12.56813,-4.03188 15.26337,-9.78439 3.10117,10.84422 13.1071,18.85006 24.91235,18.85006 11.71795,0 21.67286,-7.8851 24.85334,-18.60701 2.74505,5.62192 8.513441,9.54134 15.145331,9.54134 9.25183,0 16.86055,-7.60872 16.86055,-16.86054 0,-9.25183 -7.60872,-16.85708 -16.86055,-16.85708 -6.63189,0 -12.400281,3.91696 -15.145331,9.53788 -3.18048,-10.72108 -13.13539,-18.60354 -24.85334,-18.60354 z m 0,9.8955 c 8.91163,0 16.03073,7.11564 16.03073,16.02724 0,8.9116 -7.1191,16.03071 -16.03073,16.03071 -8.91158,0 -16.02722,-7.11911 -16.02722,-16.03071 0,-8.9116 7.11564,-16.02724 16.02722,-16.02724 z m -40.17572,9.06567 c 3.90437,0 6.96504,3.05718 6.96504,6.96157 0,3.90438 -3.06067,6.96504 -6.96504,6.96504 -3.90439,0 -6.96158,-3.06066 -6.96158,-6.96504 0,-3.90439 3.05719,-6.96157 6.96158,-6.96157 z m 80.174391,0 c 3.9044,0 6.96504,3.05718 6.96504,6.96157 0,3.90438 -3.06066,6.96504 -6.96504,6.96504 -3.90437,0 -6.96156,-3.06066 -6.96156,-6.96504 0,-3.90439 3.05721,-6.96157 6.96156,-6.96157 z"
     id="XMLID_107_"
     inkscape:connector-curvature="0" /><path
     style="fill:#828282;fill-rule:evenodd;stroke:#000000;stroke-width:0.66825;stroke-linecap:round;stroke-linejoin:round;stroke-opacity:0"
     d="M 61.905952,61.311858 C 53.101145,59.391773 45.52131,52.661516 42.795832,44.343671 c -0.236535,-0.721875 -0.469015,-1.3125 -0.516625,-1.3125 -0.04761,0 -0.45273,0.646875 -0.900272,1.4375 -0.447545,0.790625 -1.665175,2.290815 -2.70585,3.333753 -3.10333,3.110087 -6.509314,4.658862 -10.767133,4.896047 -7.939541,0.442283 -15.110738,-4.852977 -17.15491,-12.6673 -0.554492,-2.119675 -0.544643,-5.851778 0.0211,-7.995728 0.834797,-3.163561 2.448485,-5.821994 4.960223,-8.1716 1.946093,-1.820476 3.62452,-2.814825 6.298587,-3.731469 1.699979,-0.582736 2.41253,-0.686287 4.75,-0.690292 3.263451,-0.0056 5.151574,0.440185 7.875,1.859253 2.489435,1.297144 4.722785,3.33813 6.29632,5.754002 0.707828,1.086738 1.313273,1.94775 1.345435,1.913361 0.03216,-0.03439 0.4051,-0.962527 0.828753,-2.062527 6.163155,-16.002417 25.64321,-21.6596702 39.412722,-11.445952 3.946655,2.927483 7.55471,7.79089 8.86244,11.945952 0.173103,0.55 0.395165,1.0884 0.493475,1.196445 0.09831,0.108044 0.585463,-0.46249 1.082563,-1.267855 1.205842,-1.95362 3.753302,-4.461407 5.711435,-5.622487 0.875522,-0.519143 2.491855,-1.239811 3.591855,-1.601484 1.6912,-0.556053 2.44392,-0.657587 4.875,-0.657587 2.42644,0 3.18705,0.102213 4.875,0.655122 4.67007,1.52973 8.15574,4.598131 10.28827,9.056642 4.20439,8.790209 -0.42691,19.423776 -9.88383,22.693444 -4.16396,1.439665 -8.3718,1.168513 -12.446705,-0.802068 -3.16928,-1.532627 -5.63826,-3.901067 -7.711028,-7.397017 -0.206797,-0.34879 -0.407877,-0.04411 -1.095447,1.659818 -3.180273,7.881337 -9.580795,13.568882 -17.7324,15.757122 -2.79455,0.750178 -8.637355,0.86942 -11.543858,0.235592 z m 9.5,-9.648372 c 2.621313,-0.703692 4.95486,-2.071172 7.005278,-4.105155 2.081137,-2.064455 3.019392,-3.485415 3.89595,-5.900302 2.661465,-7.332258 -0.19254,-15.434409 -6.86002,-19.474704 -2.35514,-1.427147 -4.292293,-1.963928 -7.541208,-2.089657 -3.51914,-0.136185 -5.498832,0.271391 -8.236617,1.695744 -5.93582,3.088152 -9.251835,9.39425 -8.493883,16.152901 0.43556,3.883881 1.852265,6.770105 4.706728,9.588915 2.499977,2.468753 5.20544,3.868355 8.71462,4.508293 1.553152,0.283232 5.078567,0.08854 6.809152,-0.376035 z m -41.375,-9.220527 c 1.412227,-0.659033 2.914732,-2.191903 3.522533,-3.593718 0.240952,-0.555727 0.416195,-1.661837 0.426666,-2.69307 0.04432,-4.365168 -3.176179,-7.382293 -7.54514,-7.068658 -2.024104,0.145305 -3.331218,0.776893 -4.715223,2.278361 -3.301685,3.581905 -1.823146,9.64213 2.76515,11.333777 1.423187,0.524713 4.14113,0.398915 5.546014,-0.256692 z m 79.999998,0.121377 c 2.528,-1.1524 3.89238,-3.133762 4.07064,-5.911435 0.20008,-3.117646 -0.95535,-5.367216 -3.45567,-6.728059 -1.50819,-0.820861 -3.79525,-1.103619 -5.4043,-0.668155 -2.95563,0.799896 -5.08567,3.575403 -5.08567,6.626791 0,2.985973 1.33705,5.273448 3.79968,6.500626 1.63974,0.817115 4.49255,0.901747 6.07532,0.180232 z"
     id="path17" /></svg>
