<?xml version="1.0" encoding="UTF-8" standalone="no"?>
<!-- Created with Inkscape (http://www.inkscape.org/) -->

<svg
   xmlns:dc="http://purl.org/dc/elements/1.1/"
   xmlns:cc="http://creativecommons.org/ns#"
   xmlns:rdf="http://www.w3.org/1999/02/22-rdf-syntax-ns#"
   xmlns:svg="http://www.w3.org/2000/svg"
   xmlns="http://www.w3.org/2000/svg"
   xmlns:sodipodi="http://sodipodi.sourceforge.net/DTD/sodipodi-0.dtd"
   xmlns:inkscape="http://www.inkscape.org/namespaces/inkscape"
   width="118.53333mm"
   height="118.53333mm"
   viewBox="0 0 420 420"
   id="svg2"
   version="1.1"
   inkscape:version="0.91 r13725"
   sodipodi:docname="iconSmile5.svg">
  <defs
     id="defs4" />
  <sodipodi:namedview
     id="base"
     pagecolor="#ffffff"
     bordercolor="#666666"
     borderopacity="1.0"
     inkscape:pageopacity="0.0"
     inkscape:pageshadow="2"
     inkscape:zoom="0.54"
     inkscape:cx="-33.121702"
     inkscape:cy="30.925928"
     inkscape:document-units="px"
     inkscape:current-layer="layer1"
     showgrid="false"
     inkscape:snap-midpoints="true"
     fit-margin-top="0"
     fit-margin-left="0"
     fit-margin-right="0"
     fit-margin-bottom="0"
     inkscape:window-width="1366"
     inkscape:window-height="744"
     inkscape:window-x="0"
     inkscape:window-y="24"
     inkscape:window-maximized="1" />
  <metadata
     id="metadata7">
    <rdf:RDF>
      <cc:Work
         rdf:about="">
        <dc:format>image/svg+xml</dc:format>
        <dc:type
           rdf:resource="http://purl.org/dc/dcmitype/StillImage" />
        <dc:title></dc:title>
      </cc:Work>
    </rdf:RDF>
  </metadata>
  <g
     inkscape:label="Layer 1"
     inkscape:groupmode="layer"
     id="layer1"
     transform="translate(-225.71429,-266.64792)"
     style="display:inline">
    <circle
       style="fill:#ff537a;fill-opacity:1"
       id="path3340"
       cy="476.64792"
       cx="435.71429"
       r="210" />
    <path
       sodipodi:type="spiral"
       style="fill:#ffffff;fill-rule:evenodd;stroke:none;stroke-width:0.99974978;stroke-linecap:butt;stroke-linejoin:miter;stroke-miterlimit:4;stroke-dasharray:none;stroke-opacity:1"
       id="path3348"
       sodipodi:cx="425.71429"
       sodipodi:cy="472.07648"
       sodipodi:expansion="1"
       sodipodi:revolution="6.0012083"
       sodipodi:radius="194.03049"
       sodipodi:argument="-18.084988"
       sodipodi:t0="0.5905183"
       d="m 367.70423,373.26819 c 54.52669,-35.39453 128.91655,-17.36528 163.78881,36.70588 37.61756,58.32791 18.28086,137.74446 -39.58401,174.85161 -62.12858,39.84135 -146.57302,19.19683 -185.91439,-42.46213 -42.06577,-65.92883 -20.11314,-155.40213 45.34024,-196.97719 69.72873,-44.2907 164.2317,-21.02971 208.03999,48.21837 46.51607,73.52831 21.94653,173.06166 -51.09649,219.10278 -77.32764,48.74183 -181.89196,22.86354 -230.16557,-53.97461 -50.96792,-81.12674 -23.78074,-190.72256 56.85273,-241.22837 84.92565,-53.19428 199.5534,-24.69807 252.29116,59.73085 45.0663,72.14756 34.97407,167.93677 -22.53797,230.21316"
       transform="matrix(0,0.96897639,-0.9977258,0,901.03938,52.402231)" />
    <path
       style="fill:#ffffff;fill-opacity:1;stroke:none;stroke-width:0.98299998;stroke-linecap:butt;stroke-linejoin:miter;stroke-miterlimit:4;stroke-dasharray:0.98299998, 47.18399905999999788;stroke-dashoffset:0"
       id="path4639"
       d="m 428.76816,359.91891 c -3.80755,7.02237 -4.36232,15.05178 -5.32646,22.82786 -1.12962,11.68793 -2.27704,23.37878 -3.15307,35.08956 -0.41316,4.94765 -0.5304,9.90623 -0.57797,14.86735 -0.0209,1.70046 -0.0212,0.8835 -0.004,2.45089 0,0 -24.48143,12.4563 -24.48143,12.4563 l 0,0 c 0.0357,-1.62259 0.0203,-0.77866 0.0449,-2.53184 0.20707,-5.1492 0.73517,-10.28553 1.24993,-15.41069 1.31928,-11.75359 2.69582,-23.49738 3.49109,-35.30115 0.71293,-7.64659 0.60809,-15.80948 3.83701,-22.92328 0,0 24.91971,-11.525 24.91971,-11.525 z"
       inkscape:connector-curvature="0" />
    <path
       style="display:inline;fill:#ffffff;fill-opacity:1;stroke:none;stroke-width:0.98299998;stroke-linecap:butt;stroke-linejoin:miter;stroke-miterlimit:4;stroke-dasharray:0.98299998, 47.18399906;stroke-dashoffset:0"
       id="path4639-5"
       d="m 357.68357,464.71613 c 3.80755,-7.02237 4.36232,-15.05178 5.32646,-22.82786 1.12962,-11.68793 2.27704,-23.37878 3.15307,-35.08956 0.41317,-4.94765 0.5304,-9.90623 0.57797,-14.86735 0.0209,-1.70046 0.0212,-0.8835 0.004,-2.45089 0,0 24.48142,-12.4563 24.48142,-12.4563 l 0,0 c -0.0357,1.62259 -0.0203,0.77866 -0.0449,2.53184 -0.20707,5.1492 -0.73517,10.28553 -1.24993,15.41069 -1.31928,11.75359 -2.69583,23.49738 -3.49109,35.30115 -0.71293,7.64659 -0.60809,15.80948 -3.83701,22.92328 0,0 -24.91972,11.525 -24.91972,11.525 z"
       inkscape:connector-curvature="0" />
  </g>
</svg>
