<!-- Created with Inkscape (http://www.inkscape.org/) -->
<svg id="svg2" xmlns:rdf="http://www.w3.org/1999/02/22-rdf-syntax-ns#" xmlns="http://www.w3.org/2000/svg" height="100px" width="100px" version="1.1" xmlns:cc="http://creativecommons.org/ns#" xmlns:dc="http://purl.org/dc/elements/1.1/" viewBox="0 0 420 420">
 <metadata id="metadata7">
  <rdf:RDF>
   <cc:Work rdf:about="">
    <dc:format>image/svg+xml</dc:format>
    <dc:type rdf:resource="http://purl.org/dc/dcmitype/StillImage"/>
    <dc:title/>
   </cc:Work>
  </rdf:RDF>
 </metadata>
 <g id="layer1" transform="translate(-225.71 -266.65)">
  <circle id="path3340" cx="435.71" cy="476.65" r="210" fill="#ff537a"/>
  <g fill="#fff">
   <path id="path3348" d="m367.7 373.27c54.527-35.395 128.92-17.365 163.79 36.706 37.618 58.328 18.281 137.74-39.584 174.85-62.129 39.841-146.57 19.197-185.91-42.462-42.066-65.929-20.113-155.4 45.34-196.98 69.729-44.291 164.23-21.03 208.04 48.218 46.516 73.528 21.947 173.06-51.096 219.1-77.328 48.742-181.89 22.864-230.17-53.975-50.968-81.127-23.781-190.72 56.853-241.23 84.926-53.194 199.55-24.698 252.29 59.731 45.066 72.148 34.974 167.94-22.538 230.21" fill-rule="evenodd" transform="matrix(0 .96898 -.99773 0 901.04 52.402)"/>
   <path id="path4639" d="m428.77 359.92c-3.8076 7.0224-4.3623 15.052-5.3265 22.828-1.1296 11.688-2.277 23.379-3.1531 35.09-0.41316 4.9476-0.5304 9.9062-0.57797 14.867-0.0209 1.7005-0.0212 0.8835-0.004 2.4509l-24.481 12.456c0.0357-1.6226 0.0203-0.77866 0.0449-2.5318 0.20707-5.1492 0.73517-10.286 1.2499-15.411 1.3193-11.754 2.6958-23.497 3.4911-35.301 0.71293-7.6466 0.60809-15.809 3.837-22.923l24.92-11.525z"/>
   <path id="path4639-5" d="m357.68 464.72c3.8076-7.0224 4.3623-15.052 5.3265-22.828 1.1296-11.688 2.277-23.379 3.1531-35.09 0.41317-4.9476 0.5304-9.9062 0.57797-14.867 0.0209-1.7005 0.0212-0.8835 0.004-2.4509l24.481-12.456c-0.0357 1.6226-0.0203 0.77866-0.0449 2.5318-0.20707 5.1492-0.73517 10.286-1.2499 15.411-1.3193 11.754-2.6958 23.497-3.4911 35.301-0.71293 7.6466-0.60809 15.809-3.837 22.923l-24.92 11.525z"/>
  </g>
 </g>
</svg>
